<?xml version="1.0" encoding="utf-8"?>
<!-- Generator: Adobe Illustrator 26.5.0, SVG Export Plug-In . SVG Version: 6.00 Build 0)  -->
<svg version="1.1" id="Layer_1" xmlns="http://www.w3.org/2000/svg" xmlns:xlink="http://www.w3.org/1999/xlink" x="0px" y="0px"
	 viewBox="0 0 154 115.2" style="enable-background:new 0 0 154 115.2;" xml:space="preserve">
<style type="text/css">
	.st0{fill:#2CABAC;stroke:#2CABAC;stroke-width:4;stroke-linecap:round;stroke-linejoin:round;}
	.st1{fill:#ACDEE0;stroke:#ACDEE0;stroke-width:4;stroke-linecap:round;stroke-linejoin:round;}
	.st2{fill:none;stroke:#FFFFFF;stroke-width:4;stroke-linecap:round;stroke-linejoin:round;}
	.st3{fill:none;stroke:#452257;stroke-width:4;stroke-linecap:round;stroke-linejoin:round;}
</style>
<g>
	<path class="st0" d="M21.3,46.7C3.9,55.5-3,76.6,5.8,93.9s29.9,24.2,47.2,15.4l38.5-19.5L59.8,27.2L21.3,46.7z"/>
	<path class="st1" d="M148.1,21.8L148.1,21.8C139.1,4,117.4-3.1,99.6,5.9l-39.5,20l32.6,64.3l39.5-20
		C150,61.2,157.1,39.5,148.1,21.8C148.1,21.8,148.1,21.8,148.1,21.8z"/>
	<line class="st2" x1="32.2" y1="81.2" x2="50.6" y2="72.6"/>
	<path class="st3" d="M100.6,44.4c8-2.9,15.7-6.3,23.3-10.1"/>
	<path class="st3" d="M117.3,51c-3-8-6.3-15.8-10.1-23.3"/>
</g>
</svg>
