<?xml version="1.0" encoding="utf-8"?>
<!-- Generator: Adobe Illustrator 26.5.0, SVG Export Plug-In . SVG Version: 6.00 Build 0)  -->
<svg version="1.1" xmlns="http://www.w3.org/2000/svg" xmlns:xlink="http://www.w3.org/1999/xlink" x="0px" y="0px"
	 viewBox="0 0 749.9 3492.2" style="enable-background:new 0 0 749.9 3492.2;" xml:space="preserve">
<style type="text/css">
	.st0{fill:none;stroke:#000000;stroke-width:101;stroke-miterlimit:10;}
	.st1{fill:#FFFFFF;}
	.st2{font-family:'MyriadPro-Regular';}
	.st3{font-size:77px;}
</style>
<g id="movingSVG">
	<path id="motionP" class="st0" d="M329.8,41.5C107.7,195.7,7.8,427.3,70.9,591.7c48.9,127.5,189,197.3,197.6,201.4
		c149.4,72.2,234.3-2,322.7,61.3c130.2,93.2,150,400.3,20.4,514.7c-133.3,117.7-349.6-34.6-486.1,102.1
		c-53.6,53.7-87.1,144.1-71,223.5c46,226.7,468.6,207.7,506.6,400.3c30.3,153.8-213.2,227-379.9,620.9
		c-56.7,134.1-100.9,242.4-69.4,363.6c67.1,258.7,420.1,351.2,469.8,363.6"/>
</g>
<g id="btn1">
	<g id="btn">
		<circle class="st0" cx="283.7" cy="425.9" r="29.7"/>
	</g>
	<g id="btn_00000103968858028691588280000015936745223802706097_">
		<circle class="st0" cx="489" cy="425.9" r="29.7"/>
	</g>
</g>
<g id="btn2">
	<g id="btn_00000011025767140921306820000018280868654739635376_">
		<circle class="st0" cx="489" cy="1127.8" r="29.7"/>
	</g>
	<g id="btn_00000144329675778809889000000002189909600766738857_">
		<circle class="st0" cx="283.7" cy="1127.8" r="29.7"/>
	</g>
	<g id="btn_00000174577261216437076340000012427904306621002407_">
		<circle class="st0" cx="80.1" cy="1127.8" r="29.7"/>
	</g>
	<text transform="matrix(1 0 0 1 221.9576 446.0851)" class="st1 st2 st3">test</text>
	<text transform="matrix(1 0 0 1 419.6611 449.0315)" class="st1 st2 st3">hiya</text>
</g>
</svg>
