<?xml version="1.0" encoding="utf-8"?>
<!-- Generator: Adobe Illustrator 26.5.0, SVG Export Plug-In . SVG Version: 6.00 Build 0)  -->
<svg version="1.1" xmlns="http://www.w3.org/2000/svg" xmlns:xlink="http://www.w3.org/1999/xlink" x="0px" y="0px"
	 viewBox="0 0 492.5 253.4" style="enable-background:new 0 0 492.5 253.4;" xml:space="preserve">
<style type="text/css">
	.st0{fill:#383C49;}
	.st1{fill-rule:evenodd;clip-rule:evenodd;fill:#7082C0;}
	.st2{fill:#1F4256;}
	.st3{fill-rule:evenodd;clip-rule:evenodd;fill:#1F4256;}
	.st4{fill-rule:evenodd;clip-rule:evenodd;fill:#6DC5CD;}
	.st5{fill:#FFFFFF;}
	.st6{fill:#353635;}
	.st7{fill:#5C5C5A;}
	.st8{font-family:'FranklinGothic-Demi';}
	.st9{font-size:10px;}
	.st10{font-size:11px;}
	.st11{fill:#9A3092;}
	.st12{font-family:'MyriadPro-Regular';}
	.st13{font-size:12px;}
</style>
<g id="Layer_1">
	<g>
		<path class="st0" d="M221.2,88.3h-46.2V68.7h46.2c15.5,0,28.1-11,28.1-24.5c0-13.5-12.6-24.5-28.1-24.5H0V0h221.2
			c27.9,0,50.5,19.8,50.5,44.1C271.7,68.5,249,88.3,221.2,88.3z"/>
	</g>
	<g>
		<path class="st0" d="M430.5,226.7H294.7c-24.3,0-44.1-19.9-44.1-44.4c0-24.5,19.8-44.4,44.1-44.4H427v19.7H294.7
			c-13.5,0-24.5,11.1-24.5,24.7c0,13.6,11,24.7,24.5,24.7h135.9V226.7z"/>
	</g>
	<g>
		<path class="st0" d="M232.4,83.8c-21.3,0-38.6-17.3-38.6-38.6c0-21.3,17.3-38.6,38.6-38.6c21.3,0,38.6,17.3,38.6,38.6
			C271.1,66.4,253.7,83.8,232.4,83.8z M232.4,26.1c-10.5,0-19,8.5-19,19c0,10.5,8.5,19,19,19c10.5,0,19-8.5,19-19
			C251.4,34.6,242.9,26.1,232.4,26.1z"/>
	</g>
	<g>
		<polyline class="st0" points="251.4,187 251.7,45 271.3,45.2 271.2,180.9 		"/>
	</g>
	<g>
		<path class="st0" d="M141.1,67.3l50.4,1.3l-0.2,19.6l-50.4-1.3c-13.5-0.1-24.6,10.8-24.8,24.3c-0.1,13.5,10.7,24.6,24.3,24.8
			l207.4,2.1l-0.2,19.6l-207.4-2.1c-24.3-0.2-44.9-20.2-44.7-44.6C95.7,86.6,116.7,67,141.1,67.3z"/>
	</g>
	<g>
		<path class="st0" d="M136.1,149c-21.3,0-39.6-17.3-39.6-38.6c0-21.3,18.3-38.6,39.6-38.6c21.3,0,38.6,17.3,38.6,38.6
			C174.7,131.7,157.4,149,136.1,149z M136.1,91.4c-10.5,0-19,8.5-19,19c0,10.5,8.5,19,19,19c10.5,0,19-8.5,19-19
			C155.1,99.9,146.6,91.4,136.1,91.4z"/>
	</g>
	<g>
		<path class="st0" d="M292.3,220.1c-21.3,0-38.6-17.3-38.6-38.6c0-21.3,17.3-38.6,38.6-38.6c21.3,0,38.6,17.3,38.6,38.6
			C330.9,202.8,313.6,220.1,292.3,220.1z M292.3,162.5c-10.5,0-19,8.5-19,19c0,10.5,8.5,19,19,19c10.5,0,19-8.5,19-19
			C311.3,171,302.8,162.5,292.3,162.5z"/>
	</g>
	<g>
		<polygon class="st1" points="393.5,120.3 410.3,120.3 427.2,120.3 427.2,96.9 410.3,81.6 393.5,96.9 		"/>
	</g>
	<g>
		<path class="st2" d="M409.2,80.4c0.7-0.6,1.7-0.6,2.3,0.1c0.6,0.7,0.6,1.7-0.1,2.3L390,102.5c-0.7,0.6-1.7,0.6-2.3-0.1
			c-0.6-0.7-0.6-1.7,0.1-2.3L409.2,80.4z"/>
	</g>
	<g>
		<path class="st2" d="M409.2,82.8c-0.7-0.6-0.7-1.7-0.1-2.3c0.6-0.7,1.7-0.7,2.3-0.1l21.4,19.7c0.7,0.6,0.7,1.7,0.1,2.3
			c-0.6,0.7-1.7,0.7-2.3,0.1L409.2,82.8z"/>
	</g>
	<g>
		<rect x="397.8" y="102.5" class="st3" width="10.9" height="17.8"/>
	</g>
	<g>
		<rect x="411" y="102.5" class="st3" width="5.5" height="5.2"/>
	</g>
	<g>
		<rect x="417.3" y="102.5" class="st3" width="5.5" height="5.2"/>
	</g>
	<g>
		<rect x="411" y="108.6" class="st3" width="5.5" height="5.2"/>
	</g>
	<g>
		<rect x="417.3" y="108.6" class="st3" width="5.5" height="5.2"/>
	</g>
	<g>
		<g>
			<polygon class="st4" points="396.5,201.3 413.3,201.3 430.2,201.3 430.2,177.9 413.3,162.6 396.5,177.9 			"/>
		</g>
		<g>
			<path class="st2" d="M412.2,161.4c0.7-0.6,1.7-0.6,2.3,0.1c0.6,0.7,0.6,1.7-0.1,2.3L393,183.5c-0.7,0.6-1.7,0.6-2.3-0.1
				c-0.6-0.7-0.6-1.7,0.1-2.3L412.2,161.4z"/>
		</g>
		<g>
			<path class="st2" d="M412.2,163.8c-0.7-0.6-0.7-1.7-0.1-2.3c0.6-0.7,1.7-0.7,2.3-0.1l21.4,19.7c0.7,0.6,0.7,1.7,0.1,2.3
				c-0.6,0.7-1.7,0.7-2.3,0.1L412.2,163.8z"/>
		</g>
		<g>
			<rect x="400.8" y="183.5" class="st3" width="10.9" height="17.8"/>
		</g>
		<g>
			<rect x="414" y="183.5" class="st3" width="5.5" height="5.2"/>
		</g>
		<g>
			<rect x="420.3" y="183.5" class="st3" width="5.5" height="5.2"/>
		</g>
		<g>
			<rect x="414" y="189.6" class="st3" width="5.5" height="5.2"/>
		</g>
		<g>
			<rect x="420.3" y="189.6" class="st3" width="5.5" height="5.2"/>
		</g>
	</g>
	<g>
		<path class="st5" d="M293.9,213.7l-0.1-1.1c5.2-0.3,10.2-2,14.6-4.8l0.6,1C304.5,211.6,299.3,213.3,293.9,213.7z M278.3,210.8
			c-4.9-2.3-9.1-5.7-12.3-10.1l0.9-0.7c3.1,4.2,7.2,7.5,11.9,9.7L278.3,210.8z M319.9,197.1l-1-0.5c2.5-4.5,3.8-9.7,3.8-14.9
			c0-2.8-0.4-5.5-1.1-8.2l1.1-0.3c0.8,2.8,1.1,5.6,1.1,8.5C323.8,187,322.5,192.4,319.9,197.1z M260,185.9c-0.2-1.4-0.3-2.9-0.3-4.3
			c0-4,0.7-7.8,2.1-11.5l1.1,0.4c-1.4,3.5-2.1,7.3-2.1,11.1c0,1.4,0.1,2.8,0.3,4.1L260,185.9z M314,160.1c-3.6-3.7-8.1-6.5-13.1-8
			l0.3-1.1c5.1,1.6,9.8,4.5,13.6,8.3L314,160.1z M271.8,158l-0.7-0.9c4.1-3.5,9.1-5.9,14.3-7l0.2,1.1
			C280.5,152.3,275.7,154.7,271.8,158z"/>
	</g>
	<g>
		<path class="st5" d="M236,76.9l-0.1-1.1c5.2-0.3,10.2-2,14.6-4.8l0.6,1C246.6,74.8,241.4,76.5,236,76.9z M220.4,74
			c-4.9-2.3-9.1-5.7-12.3-10.1l0.9-0.7c3.1,4.2,7.2,7.5,11.9,9.7L220.4,74z M262,60.3l-1-0.5c2.5-4.5,3.8-9.7,3.8-14.9
			c0-2.8-0.4-5.5-1.1-8.2l1.1-0.3c0.8,2.8,1.1,5.6,1.1,8.5C265.9,50.2,264.6,55.6,262,60.3z M202.1,49.1c-0.2-1.4-0.3-2.9-0.3-4.3
			c0-4,0.7-7.8,2.1-11.5l1.1,0.4c-1.4,3.5-2.1,7.3-2.1,11.1c0,1.4,0.1,2.8,0.3,4.1L202.1,49.1z M256.1,23.3c-3.6-3.7-8.1-6.5-13.1-8
			l0.3-1.1c5.1,1.6,9.8,4.5,13.6,8.3L256.1,23.3z M213.9,21.2l-0.7-0.9c4.1-3.5,9.1-5.9,14.3-7l0.2,1.1
			C222.6,15.5,217.8,17.9,213.9,21.2z"/>
	</g>
	<g>
		<path class="st5" d="M104.4,113.9l1.1-0.1c0.4,5.2,2.1,10.2,4.9,14.5l-0.9,0.6C106.6,124.5,104.8,119.3,104.4,113.9z M107.2,98.2
			c2.2-4.9,5.7-9.2,10-12.4l0.7,0.9c-4.1,3.1-7.5,7.3-9.6,12L107.2,98.2z M121.2,139.7l0.5-1c4.6,2.4,9.7,3.7,14.9,3.7
			c2.8,0,5.5-0.4,8.2-1.2l0.3,1.1c-2.8,0.8-5.6,1.2-8.5,1.2C131.3,143.6,125.9,142.3,121.2,139.7z M131.8,79.7
			c1.4-0.2,2.9-0.3,4.3-0.3c4,0,7.9,0.6,11.5,2l-0.4,1.1c-3.6-1.3-7.3-2-11.1-2c-1.4,0-2.8,0.1-4.1,0.3L131.8,79.7z M158.1,133.5
			c3.7-3.7,6.4-8.2,7.9-13.2l1.1,0.3c-1.5,5.1-4.4,9.8-8.2,13.6L158.1,133.5z M159.8,91.3l0.9-0.7c3.5,4.1,6,9,7.1,14.3l-1.1,0.2
			C165.6,100,163.2,95.2,159.8,91.3z"/>
	</g>
	<path class="st5" d="M229,51.5l-1-0.2c0.4-2.1,0.6-4.2,0.6-6.3c0-2.8-0.3-5.6-1-8.3l1-0.3c0.7,2.8,1,5.6,1,8.5
		C229.6,47.2,229.4,49.4,229,51.5z"/>
	<path class="st5" d="M201.1,11.3c-0.8-0.1-1.6-0.1-2.3-0.1h-12.5v-1.1h12.5c0.8,0,1.6,0,2.4,0.1L201.1,11.3z"/>
	<rect x="156.5" y="10.2" class="st5" width="14.9" height="1.1"/>
	<rect x="126.7" y="10.2" class="st5" width="14.9" height="1.1"/>
	<rect x="97" y="10.2" class="st5" width="14.9" height="1.1"/>
	<path class="st5" d="M211.4,79.3c-0.8-0.1-1.6-0.1-2.3-0.1h-12.5v-1.1h12.5c0.8,0,1.6,0,2.4,0.1L211.4,79.3z"/>
	<rect x="166.8" y="78.2" class="st5" width="14.9" height="1.1"/>
	<rect x="220.5" y="145.3" class="st5" width="14.9" height="1.1"/>
	<rect x="190.7" y="145.3" class="st5" width="14.9" height="1.1"/>
	<rect x="161" y="145.3" class="st5" width="14.9" height="1.1"/>
	<rect x="249.9" y="145.3" class="st5" width="14.9" height="1.1"/>
	<path class="st5" d="M262,83.4c-0.1,0.8-0.1,1.6-0.1,2.3v12.5h-1.1V85.7c0-0.8,0-1.6,0.1-2.4L262,83.4z"/>
	<rect x="260.9" y="113.1" class="st5" width="1.1" height="14.9"/>
	<rect x="359" y="148.7" class="st5" width="14.9" height="1.1"/>
	<rect x="329.3" y="148.7" class="st5" width="14.9" height="1.1"/>
	<rect x="388.4" y="148.7" class="st5" width="14.9" height="1.1"/>
	<rect x="348.7" y="217" class="st5" width="14.9" height="1.1"/>
	<rect x="318.9" y="217" class="st5" width="14.9" height="1.1"/>
	<rect x="390.1" y="217" class="st5" width="14.9" height="1.1"/>
	<g>
		<rect x="228" y="30.5" class="st6" width="8.2" height="14.5"/>
		<rect x="228" y="30.5" class="st6" width="8.2" height="5.8"/>
		<rect x="175.5" y="4.8" class="st6" width="120.8" height="26.8"/>
		<rect x="179.6" y="7.1" class="st5" width="112.2" height="21.4"/>
		<path class="st7" d="M239.1,43.9h-14c-1,0-1.9,0.4-1.9,0.9l0,0c0,0.5,0.8,0.9,1.9,0.9h14c1,0,1.9-0.4,1.9-0.9l0,0
			C241,44.3,240.2,43.9,239.1,43.9z"/>
		<text transform="matrix(1 0 0 1 186.3609 21.2411)" class="st8 st9">DRUG IDENTIFICATION</text>
	</g>
	<g>
		<rect x="131.9" y="100.8" class="st6" width="8.2" height="14.5"/>
		<rect x="131.9" y="100.8" class="st6" width="8.2" height="5.8"/>
		<rect x="79.3" y="75.1" class="st6" width="120.8" height="26.8"/>
		<rect x="83.4" y="77.4" class="st5" width="112.2" height="21.4"/>
		<path class="st7" d="M143,114.2h-14c-1,0-1.9,0.4-1.9,0.9l0,0c0,0.5,0.8,0.9,1.9,0.9h14c1,0,1.9-0.4,1.9-0.9l0,0
			C144.8,114.6,144,114.2,143,114.2z"/>
		<text transform="matrix(1 0 0 1 84.3413 91.5223)" class="st8 st9">PRECLINICAL RESEARCH</text>
	</g>
	<g>
		<rect x="289.3" y="168.6" class="st6" width="8.2" height="14.5"/>
		<rect x="289.3" y="168.6" class="st6" width="8.2" height="5.8"/>
		<rect x="236.8" y="142.9" class="st6" width="120.8" height="26.8"/>
		<rect x="240.9" y="145.2" class="st5" width="112.2" height="21.4"/>
		<path class="st7" d="M300.4,182h-14c-1,0-1.9,0.4-1.9,0.9l0,0c0,0.5,0.8,0.9,1.9,0.9h14c1,0,1.9-0.4,1.9-0.9l0,0
			C302.3,182.4,301.4,182,300.4,182z"/>
		<text transform="matrix(1 0 0 1 246.305 160.334)" class="st8 st10">CLINICAL RESEARCH</text>
	</g>
	<g>
		<rect x="52.9" y="31.4" class="st6" width="8.2" height="14.5"/>
		<rect x="52.9" y="31.4" class="st6" width="8.2" height="5.8"/>
		<rect x="0.4" y="5.7" class="st6" width="120.8" height="26.8"/>
		<rect x="4.5" y="8" class="st5" width="112.2" height="21.4"/>
		<path class="st7" d="M64,44.8H50c-1,0-1.9,0.4-1.9,0.9l0,0c0,0.5,0.8,0.9,1.9,0.9h14c1,0,1.9-0.4,1.9-0.9l0,0
			C65.9,45.2,65,44.8,64,44.8z"/>
		<text transform="matrix(1 0 0 1 32.9893 22.132)" class="st8 st9">PREP STAGE</text>
	</g>
	<rect x="441.5" y="252.3" class="st5" width="14.9" height="1.1"/>
	<rect x="471.3" y="252.3" class="st5" width="14.9" height="1.1"/>
	<rect x="409" y="251.8" class="st5" width="14.9" height="1.1"/>
	<rect x="421" y="216.5" class="st5" width="14.9" height="1.1"/>
	<rect x="450.8" y="216.5" class="st5" width="14.9" height="1.1"/>
	<path class="st5" d="M492.4,215.7c-0.7,0-1.4,0-2.1,0h-11.5v-0.6h11.5c0.7,0,1.5,0,2.2,0L492.4,215.7z"/>
	<g>
		<rect x="419.9" y="145.6" class="st6" width="8.2" height="14.5"/>
		<rect x="419.9" y="145.6" class="st6" width="8.2" height="5.8"/>
		<rect x="367.4" y="119.9" class="st6" width="120.8" height="26.8"/>
		<rect x="371.5" y="122.2" class="st5" width="112.2" height="21.4"/>
		<path class="st7" d="M431,159h-14c-1,0-1.9,0.4-1.9,0.9l0,0c0,0.5,0.8,0.9,1.9,0.9h14c1,0,1.9-0.4,1.9-0.9l0,0
			C432.9,159.4,432.1,159,431,159z"/>
		<text transform="matrix(1 0 0 1 393.6923 136.3099)" class="st8 st9">FDA APPROVAL</text>
	</g>
	<g>
		<rect x="420.6" y="225.4" class="st6" width="8.2" height="14.5"/>
		<rect x="420.6" y="225.4" class="st6" width="8.2" height="5.8"/>
		<rect x="368" y="199.7" class="st6" width="120.8" height="26.8"/>
		<rect x="372.1" y="202" class="st5" width="112.2" height="21.4"/>
		<path class="st7" d="M431.7,238.8h-14c-1,0-1.9,0.4-1.9,0.9l0,0c0,0.5,0.8,0.9,1.9,0.9h14c1,0,1.9-0.4,1.9-0.9l0,0
			C433.5,239.2,432.7,238.8,431.7,238.8z"/>
		<text transform="matrix(1 0 0 1 374.9616 216.1104)" class="st8 st9">ALTERNATIVE OUTCOME</text>
	</g>
</g>
<g id="Layer_2">
	<rect id="prep_x5F_button" x="4.5" y="8" class="st11" width="116.7" height="24.5"/>
	<rect id="id_x5F_button" x="175.5" y="4.8" class="st11" width="120.8" height="26.8"/>
	<rect id="preclinical_x5F_button" x="79.3" y="75.1" class="st11" width="120.8" height="26.8"/>
	<rect id="clinical_x5F_button" x="238.8" y="143.6" class="st11" width="118.8" height="26.1"/>
	<rect id="fda_x5F_button" x="367.4" y="119.9" class="st11" width="120.8" height="26.8"/>
	<rect id="alt_x5F_button" x="368" y="199.7" class="st11" width="120.8" height="26.8"/>
</g>
<g id="Layer_3">
	<text transform="matrix(1 0 0 1 371.51 136.3096)" class="st12 st13">stage5</text>
	<text transform="matrix(1 0 0 1 11.0561 22.9886)" class="st12 st13">stage1</text>
	<text transform="matrix(1 0 0 1 181.6788 21.2202)" class="st12 st13">stage2</text>
	<text transform="matrix(1 0 0 1 85.1112 92.2556)" class="st12 st13">stage3</text>
	<text transform="matrix(1 0 0 1 243.5215 158.9537)" class="st12 st13">stage4</text>
	<text transform="matrix(1 0 0 1 372.3378 216.1104)" class="st12 st13">stage6</text>
</g>
</svg>
