<?xml version="1.0" encoding="utf-8"?>
<!-- Generator: Adobe Illustrator 26.5.0, SVG Export Plug-In . SVG Version: 6.00 Build 0)  -->
<svg version="1.1" id="Illustrations" xmlns="http://www.w3.org/2000/svg" xmlns:xlink="http://www.w3.org/1999/xlink" x="0px"
	 y="0px" viewBox="0 0 1000 1000" style="enable-background:new 0 0 1000 1000;" xml:space="preserve">
<style type="text/css">
	.st0{fill:#3B1534;}
	.st1{fill:#BD4632;}
	.st2{fill:#77C8D6;}
	.st3{fill:#F985BF;}
	.st4{fill:none;stroke:#3B1534;stroke-width:5;stroke-linecap:round;stroke-miterlimit:10;}
	.st5{fill:#F2EADA;}
	.st6{fill:#FFB6DB;}
	.st7{fill:none;stroke:#77C8D6;stroke-width:5;stroke-linecap:round;stroke-miterlimit:10;}
</style>
<path class="st0" d="M783.6,877.9H257V522.3c0-56.6,45.8-102.4,102.4-102.5h321.7c56.6,0,102.5,45.9,102.5,102.5c0,0,0,0,0,0V877.9z
	"/>
<rect x="553.5" y="193.4" class="st1" width="61.3" height="97.9"/>
<polygon class="st2" points="515.6,616.6 616.8,419.9 414.3,419.9 "/>
<ellipse class="st1" cx="500" cy="204.7" rx="55.6" ry="41.9"/>
<polygon class="st3" points="574,176.4 383.1,176.4 378.1,302.1 501.8,283.4 501.8,346.6 458,384.9 571.7,357.8 "/>
<path class="st1" d="M423.2,139.2c-13.3-18.6-39.1-22.9-57.8-9.7c-18.6,13.3-22.9,39.1-9.7,57.8c5.9,8.3,14.7,14.1,24.6,16.3
	c7.7,16,24,26.1,41.7,26c25.4,0,46.1-20.3,46.1-45.2C468.1,159.9,448.1,139.8,423.2,139.2z"/>
<rect x="459" y="324.2" class="st3" width="113.2" height="70.3"/>
<path class="st4" d="M501.8,283.4l69.3-25.2"/>
<path class="st4" d="M501.8,346.6l72.5-32.6"/>
<path class="st0" d="M459,384.1l47.1-10c0.9-0.2,1.8,0.4,2,1.3c0.1,0.7-0.2,1.4-0.8,1.8L459,407V384.1z"/>
<rect x="459" y="394.5" class="st2" width="113.2" height="25.4"/>
<polygon class="st2" points="515.6,453.6 572.2,419.9 459,419.9 "/>
<path class="st2" d="M263.1,487.4L148.5,755.2c0,0-46.8,88.7,31.2,131.5l101.9-147.7L263.1,487.4z"/>
<path class="st5" d="M368.2,603.4l18-131.9c0.7-5.3,5.7-9.1,11-8.3l71.7,9.8c5.3,0.7,9.1,5.7,8.3,11l-18,131.9
	c-0.7,5.3-5.7,9.1-11,8.3l-71.7-9.8C371.2,613.6,367.4,608.7,368.2,603.4z"/>
<path class="st1" d="M399,494.7L399,494.7c0.6-4.4,4.7-7.4,9-6.8l9.2,1.3c4.4,0.6,7.4,4.7,6.8,9l0,0c-0.6,4.4-4.7,7.4-9,6.8
	l-9.2-1.3C401.4,503.1,398.4,499.1,399,494.7z"/>
<path class="st1" d="M435.7,497.5L435.7,497.5c0.6-4.4,4.6-7.4,9-6.8l9.2,1.3c4.4,0.6,7.4,4.6,6.8,9l0,0c-0.6,4.4-4.6,7.4-9,6.8
	l-9.2-1.3C438.1,505.9,435.1,501.8,435.7,497.5z"/>
<path class="st1" d="M393.7,520.1L393.7,520.1c0.6-4.4,4.6-7.4,9-6.8l9.2,1.3c4.4,0.6,7.4,4.6,6.8,9l0,0c-0.6,4.4-4.6,7.4-9,6.8
	l-9.2-1.3C396.2,528.5,393.1,524.5,393.7,520.1z"/>
<path class="st1" d="M431.8,525.3L431.8,525.3c0.6-4.4,4.6-7.4,9-6.8l9.2,1.3c4.4,0.6,7.4,4.6,6.8,9l0,0c-0.6,4.4-4.6,7.4-9,6.8
	l-9.2-1.3C434.3,533.7,431.2,529.7,431.8,525.3z"/>
<path class="st1" d="M389.9,548L389.9,548c0.6-4.4,4.6-7.4,9-6.8l9.2,1.3c4.4,0.6,7.4,4.6,6.8,9l0,0c-0.6,4.4-4.6,7.4-9,6.8
	l-9.2-1.3C392.4,556.4,389.3,552.4,389.9,548z"/>
<path class="st1" d="M428,553.2L428,553.2c0.6-4.4,4.6-7.4,9-6.8l9.2,1.3c4.4,0.6,7.4,4.6,6.8,9l0,0c-0.6,4.4-4.6,7.4-9,6.8
	l-9.2-1.3C430.5,561.6,427.4,557.6,428,553.2z"/>
<path class="st5" d="M367.3,500h72.3c5.4,0,9.8,4.4,9.8,9.8v133.1c0,5.4-4.4,9.8-9.8,9.8h-72.3c-5.4,0-9.8-4.4-9.8-9.8V509.8
	C357.5,504.4,361.9,500,367.3,500z"/>
<path class="st6" d="M379.6,520.8h9.3c4.4,0,8,3.6,8,8l0,0c0,4.4-3.6,8-8,8h-9.3c-4.4,0-8-3.6-8-8l0,0
	C371.6,524.4,375.2,520.8,379.6,520.8z"/>
<path class="st6" d="M418,520.8h9.3c4.4,0,8,3.6,8,8l0,0c0,4.4-3.6,8-8,8H418c-4.4,0-8-3.6-8-8l0,0C410,524.4,413.6,520.8,418,520.8
	z"/>
<path class="st6" d="M379.6,548.9h9.3c4.4,0,8,3.6,8,8l0,0c0,4.4-3.6,8-8,8h-9.3c-4.4,0-8-3.6-8-8l0,0
	C371.6,552.5,375.2,548.9,379.6,548.9z"/>
<path class="st6" d="M418,548.9h9.3c4.4,0,8,3.6,8,8l0,0c0,4.4-3.6,8-8,8H418c-4.4,0-8-3.6-8-8l0,0C410,552.5,413.6,548.9,418,548.9
	z"/>
<path class="st6" d="M379.6,577h9.3c4.4,0,8,3.6,8,8l0,0c0,4.4-3.6,8-8,8h-9.3c-4.4,0-8-3.6-8-8l0,0
	C371.6,580.6,375.2,577,379.6,577z"/>
<path class="st6" d="M418,577h9.3c4.4,0,8,3.6,8,8l0,0c0,4.4-3.6,8-8,8H418c-4.4,0-8-3.6-8-8l0,0C410,580.6,413.6,577,418,577z"/>
<path class="st2" d="M776.3,487.4l114.6,267.8c0,0,46.8,88.7-31.2,131.5L757.9,739.1L776.3,487.4z"/>
<path class="st2" d="M544,623l53.3-73.2c9-12.4,26.4-15.1,38.8-6.1l45.6,33.2c12.4,9,15.1,26.4,6.1,38.8l-53.3,73.2
	c-9,12.4-26.4,15.1-38.8,6.1l-45.6-33.2C537.7,652.8,534.9,635.4,544,623z"/>
<path class="st5" d="M686.5,586.1l-61.1-45l7.2-9.8c2.2-2.9,6.3-3.5,9.2-1.4l50.5,37.2c2.9,2.1,3.6,6.2,1.4,9.2c0,0,0,0,0,0
	L686.5,586.1z"/>
<rect x="579.5" y="566.1" transform="matrix(0.5926 -0.8055 0.8055 0.5926 -250.0234 749.5557)" class="st5" width="73" height="111.7"/>
<line class="st4" x1="645.6" y1="532.7" x2="634.9" y2="547.2"/>
<line class="st4" x1="656.3" y1="540.7" x2="645.7" y2="555.1"/>
<line class="st4" x1="667.1" y1="548.6" x2="656.5" y2="563"/>
<line class="st4" x1="677.9" y1="556.5" x2="667.3" y2="571"/>
<line class="st4" x1="688.7" y1="564.5" x2="678" y2="578.9"/>
<path class="st4" d="M515.6,442.9c-0.1-15.6-0.2-31.3-0.2-46.9"/>
<line class="st4" x1="773" y1="670" x2="657.2" y2="745"/>
<path class="st5" d="M741.8,643.1l-98.4,65.5c-4.1,2.8-5.2,8.3-2.5,12.5l16.3,24.1l116.2-75.6l-19.6-24.6
	C750.9,641.3,745.7,640.5,741.8,643.1z"/>
<path class="st3" d="M736.7,646.5c-17.2-29.9-25-61.3-36.6-94l-0.6-1.6c0,0-4.2-12-11.7-5c0,0-6.4,4.8-0.3,41.3
	c0.2,1.2,0.5,2.4,0.7,3.6c0.9,4,3.1,14.5,0.3,16.1c0,0-7,9.1-37.2-17.1L617,560.9c0,0-12-10.8-19.3-5.5c0,0-3.6,2.4-3.1,5.8
	c-4.3-4.2-9.2-10.8-14.8-13.1c-9.1-3.7-14.3,7.1-11.6,14.3c-0.5-1.3-4.2-1.8-5.2-1.8c-4.7,0.1-7.1,4.5-7.3,8.7c0,3.5,0.6,7,1.8,10.3
	c0.6,1.8,6.3,15.3,8,14.9c0,0-11,2.7,0.2,20.7c12,17.3,27.6,31.7,45.7,42.3l6.8,3.8c16.2,8.9,30.6,21.4,44.8,34.1L736.7,646.5z"/>
<path class="st4" d="M594.5,561.3c0,0,13.4,29.5,41.4,44.2"/>
<path class="st4" d="M568.2,562.5c0,0,13.2,45.1,52.8,60.3"/>
<path class="st4" d="M564.1,593.9c0,0,20.6,34.1,47.1,45.4"/>
<path class="st5" d="M728.7,258c4.3-12.8-2.5-26.6-15.2-31l0,0c-12.8-4.3-26.7,2.5-31,15.2L672,272.9l46.2,15.8L728.7,258z"/>
<path class="st2" d="M672,272.9l-10.4,30.6c-4.4,12.8,2.5,26.7,15.2,31s26.7-2.5,31-15.2l0,0l10.4-30.6L672,272.9z"/>
<path class="st5" d="M192.1,171.1c-12.2-5.7-26.8-0.4-32.5,11.8l0,0c-5.7,12.2-0.4,26.8,11.8,32.5l29.3,13.6l20.6-44.3L192.1,171.1z
	"/>
<path class="st6" d="M250.8,198.4l-29.3-13.7L200.8,229l29.3,13.7c12.2,5.7,26.8,0.4,32.5-11.8l0,0
	C268.3,218.6,263,204.1,250.8,198.4z"/>
<circle class="st2" cx="741.4" cy="668.6" r="6.5"/>
<path class="st5" d="M306.3,411.5c-6.3-11.9-21.1-16.4-33-10.1c-11.9,6.3-16.4,21.1-10.1,33c0.3,0.5,0.5,1,0.8,1.4l16.1,28
	l42.3-24.4L306.3,411.5z"/>
<path class="st6" d="M322.5,439.6l-42.3,24.4l16.1,28.1c6.7,11.7,21.6,15.7,33.3,9c0,0,0,0,0,0l0,0c11.7-6.7,15.7-21.6,9-33.3
	c0,0,0,0,0,0L322.5,439.6z"/>
<circle class="st5" cx="152.5" cy="381.5" r="35.9"/>
<line class="st7" x1="165.3" y1="352" x2="135.4" y2="408.9"/>
<circle class="st5" cx="699" cy="474.9" r="35.9"/>
<line class="st7" x1="668.9" y1="459.8" x2="729.2" y2="490"/>
<ellipse transform="matrix(0.7071 -0.7071 0.7071 0.7071 -212.0062 513.1718)" class="st5" cx="513.5" cy="512.5" rx="5.5" ry="5.5"/>
<ellipse transform="matrix(0.9239 -0.3827 0.3827 0.9239 -173.0908 238.6928)" class="st5" cx="513.5" cy="554.4" rx="5.5" ry="5.5"/>
<path class="st1" d="M614.8,199.1c0-36.6-29.7-66.2-66.2-66.2H412.9v66.2h129.5v24c0,19.7,15.9,35.6,35.6,35.6h20.7v-59.6H614.8z"/>
<circle class="st3" cx="584" cy="285.8" r="33.8"/>
<circle class="st4" cx="584.7" cy="288.9" r="8.5"/>
<path class="st4" d="M595.3,272.4c0,0-15.7,2.2-18.2,12.6"/>
<polyline class="st4" points="459,419.3 515.6,442.9 572.2,419.3 "/>
<path class="st2" d="M199.5,752.7c-30.2,37.8-54.3,96.6-19.8,134l0,0c0.4,0.3,0.9,0.7,1.5,1.1c8.7,6.4,18.7,10.8,29.2,13
	c9.4,2.1,19.1,2.5,28.7,1.4c22.8-2.7,41.8-12.3,56.6-29.8c8.8-10.4,15.5-22.2,23.1-33.4l36.9-54.7l26.9-39.8l-116.3-75.2
	L199.5,752.7z"/>
<path class="st2" d="M839.9,752.7l-66.5-83.2l-116.2,75.6l26.5,39.2l36.9,54.7c7.6,11.2,14.3,23,23.1,33.4
	c14.9,17.5,33.9,27.1,56.7,29.8c9.6,1.2,19.3,0.7,28.7-1.4c10.6-2.2,20.5-6.6,29.2-13c0.6-0.5,1.1-0.8,1.5-1.1l0,0
	C894.2,849.3,870.2,790.6,839.9,752.7z"/>
<line class="st4" x1="773.4" y1="669.5" x2="866.8" y2="786.2"/>
<path class="st3" d="M303.2,647.7c14.1-33.1,24.5-62.5,36.1-95.3l0.6-1.6c0,0,4.2-12,11.7-5c0,0,6.4,4.8,0.4,41.3
	c-0.2,1.2-0.5,2.4-0.7,3.6c-0.9,4-3.1,14.5-0.3,16.1c0,0,7,9.1,37.1-17.1l34.4-28.8c0,0,12-10.8,19.4-5.5c0,0,3.6,2.4,3.1,5.8
	c4.3-4.2,9.2-10.8,14.8-13.1c9.1-3.7,14.3,7.1,11.6,14.3c0.5-1.3,4.2-1.8,5.2-1.8c4.7,0.1,7.1,4.5,7.3,8.7c0,3.5-0.6,7-1.8,10.3
	c-0.6,1.8-6.3,15.3-8,14.9c0,0,11,2.7-0.2,20.7c-12,17.3-27.6,31.7-45.7,42.3l-6.8,3.8c-16.2,8.9-27.7,20.4-43.7,34.8L303.2,647.7z"
	/>
<path class="st4" d="M444.9,561.3c0,0-13.4,29.5-41.4,44.2"/>
<path class="st4" d="M471.2,562.5c0,0-13.1,45.1-52.8,60.3"/>
<path class="st4" d="M475.3,593.9c0,0-20.6,34.1-47.1,45.4"/>
<path class="st5" d="M500.4,280.4l-122.3,21.7l-2.1,53c-0.8,20.9,15.5,38.6,36.4,39.4c2.6,0.1,5.2-0.1,7.7-0.5l37.9-9l48.3-37
	c1.2-0.9,1.8-2.3,1.8-3.7l-2.4-59.7c-0.1-2.5-2.2-4.4-4.7-4.3C500.8,280.3,500.6,280.4,500.4,280.4z"/>
<line class="st7" x1="379.3" y1="327" x2="463.2" y2="311.6"/>
<line class="st7" x1="378.1" y1="355.1" x2="430.9" y2="344.2"/>
<path class="st5" d="M284.5,646.3l-18.3,23l116.4,75.2c4.9-7.3,9.8-14.6,14.8-21.9c3.4-5,2.1-11.8-3-15.2c0,0,0,0,0,0
	c-21.4-14.3-74.6-49.7-95.2-63.4C294.4,640.9,288,641.9,284.5,646.3z"/>
<circle class="st2" cx="298" cy="668.6" r="6.5"/>
<line class="st4" x1="266.1" y1="669.3" x2="183.7" y2="775.5"/>
</svg>
