<?xml version="1.0" encoding="utf-8"?>
<!-- Generator: Adobe Illustrator 26.5.0, SVG Export Plug-In . SVG Version: 6.00 Build 0)  -->
<svg version="1.1" xmlns="http://www.w3.org/2000/svg" xmlns:xlink="http://www.w3.org/1999/xlink" x="0px" y="0px"
	 viewBox="0 0 269.6 1207.3" style="enable-background:new 0 0 269.6 1207.3;" xml:space="preserve">
<style type="text/css">
	.st0{fill:none;stroke:#000000;stroke-width:35;stroke-miterlimit:10;}
	.st1{fill:#D4A6CD;stroke:#000000;stroke-miterlimit:10;}
	.st2{fill:#90C73E;stroke:#000000;stroke-miterlimit:10;}
	.st3{fill:#F47848;stroke:#000000;stroke-miterlimit:10;}
	.st4{fill:#9EDBEC;stroke:#000000;stroke-miterlimit:10;}
	.st5{fill:#F2EC61;stroke:#000000;stroke-miterlimit:10;}
</style>
<g id="Layer_1">
	<g id="road">
		<path class="st0" d="M198,1195.2c-70.1-74-80.2-129.8-76.6-167c6.7-69.6,63-90.5,61.3-162.4c-0.6-25.1-7.7-33.8-61.3-134.8
			c-75.1-141.8-76.7-154-76.6-165.4c0.7-78,77.6-96.8,121-190c23.5-50.5,40.8-130.6,3.1-255.8L64.7,69.3"/>
		<line class="st0" x1="168.9" y1="119.8" x2="231.7" y2="69.3"/>
	</g>
</g>
<g id="Layer_2">
	
		<rect id="step1" x="66.3" y="1034.4" transform="matrix(6.123234e-17 -1 1 6.123234e-17 -932.1103 1170.3323)" class="st1" width="105.7" height="33.6"/>
	
		<rect id="step2" x="134.4" y="862.1" transform="matrix(6.123234e-17 -1 1 6.123234e-17 -691.6724 1066.0892)" class="st2" width="105.7" height="33.6"/>
	
		<rect id="step3" x="1.1" y="546.9" transform="matrix(6.123234e-17 -1 1 6.123234e-17 -509.7445 617.6019)" class="st3" width="105.7" height="33.6"/>
	
		<rect id="step4" x="118.3" y="109.2" transform="matrix(6.123234e-17 -1 1 6.123234e-17 45.2532 297.1425)" class="st4" width="105.7" height="33.6"/>
	<polygon id="star1" class="st5" points="1.1,47 19.8,37.8 22.8,17.1 37.4,32.1 58,28.6 48.3,47 58,65.5 37.4,62 22.8,76.9 
		19.8,56.3 	"/>
	<polygon id="star2" class="st5" points="211.8,31 230.5,21.7 233.5,1.1 248.1,16 268.7,12.5 259,31 268.7,49.4 248.1,45.9 
		233.5,60.9 230.5,40.2 	"/>
</g>
</svg>
