<?xml version="1.0" encoding="utf-8"?>
<!-- Generator: Adobe Illustrator 26.5.0, SVG Export Plug-In . SVG Version: 6.00 Build 0)  -->
<svg version="1.1" xmlns="http://www.w3.org/2000/svg" xmlns:xlink="http://www.w3.org/1999/xlink" x="0px" y="0px"
	 viewBox="0 0 1250 300" style="enable-background:new 0 0 1250 300;" xml:space="preserve">
<style type="text/css">
	.st0{fill:none;stroke:#000000;stroke-width:35;stroke-miterlimit:10;}
	.st1{fill:#D4A6CD;stroke:#000000;stroke-miterlimit:10;}
	.st2{fill:#90C73E;stroke:#000000;stroke-miterlimit:10;}
	.st3{fill:#F47848;stroke:#000000;stroke-miterlimit:10;}
	.st4{fill:#9EDBEC;stroke:#000000;stroke-miterlimit:10;}
	.st5{fill:#F2EC61;stroke:#000000;stroke-miterlimit:10;}
</style>
<g id="Layer_1">
	<g id="road">
		<path class="st0" d="M35.4,206.8c74-70.1,129.8-80.2,167-76.6c69.6,6.7,90.5,63,162.4,61.3c25.1-0.6,33.8-7.7,134.8-61.3
			c141.8-75.1,154-76.7,165.4-76.6c78,0.7,96.8,77.6,190,121c50.5,23.5,130.6,40.8,255.8,3.1l50.6-104.2"/>
		<line class="st0" x1="1110.8" y1="177.7" x2="1161.3" y2="240.5"/>
	</g>
</g>
<g id="Layer_2">
	<rect id="step1" x="126.5" y="111.2" class="st1" width="105.7" height="33.6"/>
	<rect id="step2" x="298.9" y="179.3" class="st2" width="105.7" height="33.6"/>
	<rect id="step3" x="614.1" y="46" class="st3" width="105.7" height="33.6"/>
	<rect id="step4" x="1051.8" y="163.2" class="st4" width="105.7" height="33.6"/>
	<polygon id="star1" class="st5" points="1183.6,10 1192.8,28.7 1213.4,31.7 1198.5,46.2 1202,66.8 1183.6,57.1 1165.1,66.8 
		1168.6,46.2 1153.7,31.7 1174.3,28.7 	"/>
	<polygon id="star2" class="st5" points="1199.6,220.6 1208.9,239.4 1229.5,242.4 1214.6,256.9 1218.1,277.5 1199.6,267.8 
		1181.1,277.5 1184.7,256.9 1169.7,242.4 1190.4,239.4 	"/>
</g>
</svg>
