<?xml version="1.0" encoding="utf-8"?>
<!-- Generator: Adobe Illustrator 26.5.0, SVG Export Plug-In . SVG Version: 6.00 Build 0)  -->
<svg version="1.1" id="Layer_1" xmlns="http://www.w3.org/2000/svg" xmlns:xlink="http://www.w3.org/1999/xlink" x="0px" y="0px"
	 viewBox="0 0 900 600" style="enable-background:new 0 0 900 600;" xml:space="preserve">
<style type="text/css">
	.st0{fill:#2E85D9;}
	.st1{fill:#E1E4E5;}
	.st2{fill:none;stroke:#FFFFFF;stroke-width:45.945;stroke-linecap:round;stroke-linejoin:round;}
	.st3{fill:url(#SVGID_1_);}
	.st4{fill:url(#SVGID_00000158712078632844579680000005211462981398472610_);}
</style>
<g>
	<path class="st0" d="M233.7,340.5c-9.8-75.1,42-164.3,152.4-150.8c93.6,11.5,113.9-3.3,154.3-24.4c26.6-13.9,68.3-38.6,102.1,31.9
		c44.2,92.2-59.5,236.8-152.1,281.2C401.7,520.7,251.5,476.7,233.7,340.5z"/>
	<path class="st1" d="M273.1,178.3l-28.7,28.7c-1,1-2.7,1-3.8,0l0,0c-1-1-1-2.7,0-3.8l28.7-28.7c1-1,2.7-1,3.8,0l0,0
		C274.2,175.5,274.2,177.2,273.1,178.3z"/>
	<path class="st1" d="M252.4,451.9l-17,17c-0.6,0.6-1.6,0.6-2.2,0l0,0c-0.6-0.6-0.6-1.6,0-2.2l17-17c0.6-0.6,1.6-0.6,2.2,0l0,0
		C253,450.3,253,451.3,252.4,451.9z"/>
	<path class="st1" d="M641.3,406.7l17-17c0.6-0.6,1.6-0.6,2.2,0l0,0c0.6,0.6,0.6,1.6,0,2.2l-17,17c-0.6,0.6-1.6,0.6-2.2,0v0
		C640.7,408.3,640.7,407.3,641.3,406.7z"/>
	<path class="st1" d="M255.5,178.1l-8.3,8.3c-1,1-2.7,1-3.8,0l0,0c-1-1-1-2.7,0-3.8l8.3-8.3c1-1,2.7-1,3.8,0l0,0
		C256.6,175.4,256.6,177.1,255.5,178.1z"/>
	<path class="st1" d="M241.9,451.8l-4.9,4.9c-0.6,0.6-1.6,0.6-2.2,0h0c-0.6-0.6-0.6-1.6,0-2.2l4.9-4.9c0.6-0.6,1.6-0.6,2.2,0l0,0
		C242.5,450.2,242.5,451.2,241.9,451.8z"/>
	<path class="st1" d="M651.7,406.7l4.9-4.9c0.6-0.6,1.6-0.6,2.2,0v0c0.6,0.6,0.6,1.6,0,2.2L654,409c-0.6,0.6-1.6,0.6-2.2,0v0
		C651.1,408.4,651.1,407.4,651.7,406.7z"/>
	<path class="st1" d="M488.1,500.5c-4.6,1.1-10.7,3.5-14.2,8.2c-3.5,4.7,0.7,6.1,6.3,5.2s11.1-4,13.3-8.5
		C495.8,501,491.9,499.6,488.1,500.5L488.1,500.5z M510.6,491.8c-2.2,0.5-5.2,1.7-6.9,3.9c-1.7,2.3,0.4,2.9,3,2.5
		c2.7-0.4,5.4-2,6.4-4.1S512.5,491.3,510.6,491.8L510.6,491.8z M592.9,461.3c5.7-3.9,6.3-13.1,6.3-13.1s-8.8-2.8-14.5,1.2
		c-5.7,3.9-6.3,13.1-6.3,13.1S587.2,465.3,592.9,461.3L592.9,461.3z"/>
	<ellipse class="st1" cx="577.4" cy="117.1" rx="7.7" ry="8.2"/>
	<ellipse class="st1" cx="684.6" cy="331" rx="4.4" ry="6.6"/>
	<path class="st2" d="M360.8,334.9l48.1,48.6l105-106.1"/>
	
		<linearGradient id="SVGID_1_" gradientUnits="userSpaceOnUse" x1="368.0586" y1="412.6132" x2="640.2166" y2="550.0292" gradientTransform="matrix(1 0 0 -1 0 602)">
		<stop  offset="0" style="stop-color:#FFFFFF"/>
		<stop  offset="1" style="stop-color:#EEEEEE"/>
	</linearGradient>
	<path class="st3" d="M485.7,166.9c-31.3,8.3-65.3-17.5-65.3-17.5s16.8-39.2,48-47.5c31.3-8.3,65.3,17.5,65.3,17.5
		S517,158.6,485.7,166.9L485.7,166.9z"/>
	
		<linearGradient id="SVGID_00000084493833153285074930000001514253675757588124_" gradientUnits="userSpaceOnUse" x1="665.951" y1="322.9244" x2="733.9579" y2="429.5314" gradientTransform="matrix(1 0 0 -1 0 602)">
		<stop  offset="0" style="stop-color:#FFFFFF"/>
		<stop  offset="1" style="stop-color:#EEEEEE"/>
	</linearGradient>
	<path style="fill:url(#SVGID_00000084493833153285074930000001514253675757588124_);" d="M703.1,246.2c-9.4,9.6-27,7.6-27,7.6
		s-2.3-17.5,7.1-27.1c9.4-9.6,27-7.6,27-7.6S712.6,236.6,703.1,246.2L703.1,246.2z"/>
	<ellipse class="st1" cx="198.3" cy="334.8" rx="15.9" ry="17"/>
	<ellipse class="st1" cx="195" cy="235.8" rx="6" ry="5.5"/>
	<circle class="st1" cx="350.4" cy="153.2" r="11.5"/>
	<path class="st1" d="M673.2,137.4H673c-1.4,19.5-15.7,19.8-15.7,19.8s15.9,0.3,15.9,22.9c0-22.5,15.9-22.9,15.9-22.9
		S674.6,156.9,673.2,137.4z"/>
</g>
</svg>
