<svg xmlns="http://www.w3.org/2000/svg" viewBox="0 0 1200 900"><g data-name="Explaining report"><path fill="#fff3f7" d="M298.11,734.84C273.65,716,165.78,628.48,154.64,501.78,139,324,326.44,213,377.86,182.54,495.73,112.72,779.08,7.41,958.73,164.72c143.88,126,132.57,357.74,43.61,490.32C855.75,873.52,492.13,884,298.11,734.84Z"/><rect width="64.89" height="28.93" x="933.44" y="465.23" fill="none" stroke="#fc7e85" stroke-linecap="round" stroke-linejoin="round" stroke-width="2" rx="2"/><rect width="64.89" height="28.93" x="933.44" y="522.99" fill="none" stroke="#fc7e85" stroke-linecap="round" stroke-linejoin="round" stroke-width="2" rx="2"/><rect width="64.89" height="28.93" x="965.88" y="494.16" fill="none" stroke="#fc7e85" stroke-linecap="round" stroke-linejoin="round" stroke-width="2" rx="2"/><rect width="64.89" height="28.93" x="900.99" y="494.16" fill="none" stroke="#fc7e85" stroke-linecap="round" stroke-linejoin="round" stroke-width="2" rx="2"/><rect width="64.89" height="28.93" x="221.66" y="608.22" fill="none" stroke="#fc7e85" stroke-linecap="round" stroke-linejoin="round" stroke-width="2" rx="2"/><rect width="64.89" height="28.93" x="254.1" y="665.98" fill="none" stroke="#fc7e85" stroke-linecap="round" stroke-linejoin="round" stroke-width="2" rx="2"/><rect width="64.89" height="28.93" x="267.58" y="637.15" fill="none" stroke="#fc7e85" stroke-linecap="round" stroke-linejoin="round" stroke-width="2" rx="2"/><rect width="64.89" height="28.93" x="202.7" y="637.15" fill="none" stroke="#fc7e85" stroke-linecap="round" stroke-linejoin="round" stroke-width="2" rx="2"/><rect width="64.89" height="28.93" x="599.05" y="222.79" fill="none" stroke="#fc7e85" stroke-linecap="round" stroke-linejoin="round" stroke-width="2" rx="2"/><rect width="64.89" height="28.93" x="620.97" y="280.65" fill="none" stroke="#fc7e85" stroke-linecap="round" stroke-linejoin="round" stroke-width="2" rx="2"/><rect width="64.89" height="28.93" x="644.98" y="251.72" fill="none" stroke="#fc7e85" stroke-linecap="round" stroke-linejoin="round" stroke-width="2" rx="2"/><rect width="64.89" height="28.93" x="580.09" y="251.72" fill="none" stroke="#fc7e85" stroke-linecap="round" stroke-linejoin="round" stroke-width="2" rx="2"/><g><rect width="325.83" height="362.13" x="263.2" y="99.19" fill="#454851"/><rect width="277.96" height="308.93" x="287.14" y="125.79" fill="#e3eaf3"/><path fill="#b6b7b7" d="M440.17 168.45a12.69 12.69 0 00-6.25 3.81c-4-1.78-3.92-6.28-3.92-6.48l-2.7-.14a9.64 9.64 0 005 8.86 12.8 12.8 0 00-1.7 6.38c-.42 0-.82-.06-1.22-.06a12.93 12.93 0 00-12.91 12.9h2.71a10.21 10.21 0 0110.2-10.19 10.46 10.46 0 012.41.32l1.94.33-.3-2a9.52 9.52 0 01-.12-1.32 10.14 10.14 0 018.6-10l1.55-.3-.49-1.51c-.3-.92.29-5.65 1.1-6.66l-2.1-1.71C440.83 162 440.09 166 440.17 168.45zM502.36 167.32A9.91 9.91 0 00491.81 173l2.4 1.23A7.22 7.22 0 01502 170a7.88 7.88 0 016 4.17 9.83 9.83 0 01.54 8.64l2.45 1.14a12.61 12.61 0 00-.63-11.11A10.57 10.57 0 00502.36 167.32z"/><path fill="#ef3e3b" d="M546.4,209.41c-.2-11.58-3.37-20.47-9.17-25.72a19.8,19.8,0,0,0-4.09-2.83,37.64,37.64,0,0,0-8.67-17c-6.94-7.92-14.71-12.25-22.06-12.77-8.61-3.78-17.39-5.87-24.77-5.92a8.85,8.85,0,0,0-7.07-4.67c-4.48-.5-8.54,1.82-11,6.27-11.47.7-21.56,2-28.78,8.8a16,16,0,0,0-3.67-.44c-6.12,0-10.87,5.44-11.06,10.25-7.5,5.06-11.49,11.76-12.79,21.53a13.45,13.45,0,0,0,6,21.48,7.12,7.12,0,0,0-.13.91c0,4.92,5.58,8.78,12.73,8.78a23.74,23.74,0,0,0,3.56-.29c-.11.21-.22.42-.31.61a9.47,9.47,0,0,0,8.48,13.71,8.21,8.21,0,0,0,2.55-.42c1.79,4.58,10.3,7.26,23.4,7.26,5.81,0,10.4-.28,14.1-1.19,4.72,11.86,15.38,18.74,29,18.74.86,0,1.73,0,2.59-.09,11.2-.68,21-5.87,22.33-11.81a7,7,0,0,0-.3-4.29C539.59,237.28,546.7,225.86,546.4,209.41Z"/><path fill="#b6b7b7" d="M527.52,200.78a8.73,8.73,0,0,0-2.81,5.87c-.12,0-.24,0-.35,0-5.67.14-7.68,4.25-9.63,8.22a32,32,0,0,1-3.15,5.46c-3.13,4-9.31,5.13-15.16,4.25-1.36-1.35-1.8-2.63-1.24-3.77a5.81,5.81,0,0,1,5.13-2.72l.43-2.68a8.49,8.49,0,0,0-8,4.22,5.07,5.07,0,0,0-.15,4.1,23.54,23.54,0,0,1-2.74-1.05c-14.16-6.54-30.26,4.74-30.94,5.23l1.57,2.2c.16-.1,15.51-10.86,28.23-5,6.23,2.86,14.42,3.45,20.29.59a5.92,5.92,0,0,0,1.64,3.4,5.44,5.44,0,0,0,4,1.59,9.25,9.25,0,0,0,4.55-1.36L517.81,227c-2.23,1.28-4.09,1.35-5.25.19a3.06,3.06,0,0,1-.65-3.37,12.26,12.26,0,0,0,1.81-1.86,33.6,33.6,0,0,0,3.45-5.93c2.06-4.21,3.42-6.6,7.25-6.7h.11a6.1,6.1,0,0,1,4.11,1.8,5.64,5.64,0,0,1,1.78,4,11.44,11.44,0,0,1-4,8.45l-.51.52,2,1.86.45-.44a14.11,14.11,0,0,0,4.85-10.38,8.29,8.29,0,0,0-2.59-5.92,9.06,9.06,0,0,0-3.15-2,6.16,6.16,0,0,1,2-4.43,5.16,5.16,0,0,1,4.47-1.65l.72-2.61A7.81,7.81,0,0,0,527.52,200.78Z"/><path fill="#ef3e3b" d="M493.45,254.87c-1-.22-19.1-28.1-25.61-16.23,11,12.53,16.07,30.05,18.08,35.85a5.58,5.58,0,0,0,9.56,1.74,5.62,5.62,0,0,0,1.19-4.6Z"/><polygon fill="#b6b7b7" points="533.85 201.11 533.85 201.11 533.85 201.11 533.85 201.11"/><polygon fill="#b6b7b7" points="534.21 199.81 533.85 201.11 533.87 201.11 534.21 199.81"/><path fill="#c82833" d="M501.4,153.6c-8.28-3.65-17-5.75-24-5.75v-2.71c7.45,0,16.38,2.12,25.12,6Zm-69.66,4.82-2-1.86c7.51-7.92,18.48-9.16,31-9.89l.17,2.71c-11.94.69-22.38,1.85-29.2,9Zm-25.82,29.2-2.69-.34c1.3-10.5,5.62-17.51,14-22.72l1.43,2.3c-7.62,4.74-11.56,11.15-12.75,20.76Zm13.22,6.1h-2.71a12.93,12.93,0,0,1,12.91-12.9c.4,0,.8,0,1.22.06a12.8,12.8,0,0,1,9.61-12.43c-.08-2.46.66-6.43,1.76-7.78l2.1,1.71c-.81,1-1.4,5.74-1.1,6.66l.49,1.51-1.55.3a10.14,10.14,0,0,0-8.6,10,9.52,9.52,0,0,0,.12,1.32l.3,2-1.94-.33a10.46,10.46,0,0,0-2.41-.32,10.21,10.21,0,0,0-10.2,10.19Zm0,0"/><path fill="#c82833" d="M451.28,183.72c-.11-.48-2.77-11.89,2.42-19.82,2.67-4.07,3.7-8.87,4.44-12.4a20.35,20.35,0,0,1,1.2-4.32c2.4-4.74,6.6-7.21,11.23-6.7,3.77.45,6.81,2.85,7.55,6,1.39,5.8-.54,11.66-5.9,17.89-1.28,1.49-2.11,4.06-2.41,7.39l-2.7-.22c.34-4,1.37-7,3.05-8.94,4.82-5.61,6.51-10.53,5.33-15.49-.48-2-2.63-3.6-5.24-3.92-1.67-.18-5.81-.07-8.5,5.24a19.88,19.88,0,0,0-1,3.66c-.79,3.72-1.87,8.82-4.81,13.32-4.56,6.94-2.1,17.59-2.06,17.7Zm9.2,46.35-1.57-2.2c.68-.49,16.78-11.77,30.94-5.23,7,3.26,17.37,3.28,21.73-2.35a32,32,0,0,0,3.15-5.46c1.95-4,4-8.08,9.63-8.22a8.81,8.81,0,0,1,6.18,2.58,8.29,8.29,0,0,1,2.59,5.92,14.11,14.11,0,0,1-4.85,10.38l-.45.44-2-1.86.51-.52a11.44,11.44,0,0,0,4-8.45,5.65,5.65,0,0,0-1.78-4,6.1,6.1,0,0,0-4.11-1.8h-.11c-3.83.1-5.19,2.49-7.25,6.7a33.6,33.6,0,0,1-3.45,5.93c-5.24,6.78-16.83,6.92-25,3.16-12.72-5.9-28.07,4.86-28.23,5ZM511.05,184l-2.45-1.15a9.83,9.83,0,0,0-.54-8.64,7.88,7.88,0,0,0-6-4.17,7.22,7.22,0,0,0-7.83,4.18l-2.4-1.23a9.91,9.91,0,0,1,10.55-5.65,10.57,10.57,0,0,1,8.06,5.54,12.63,12.63,0,0,1,.63,11.12Zm-92.59-11.37c-2.22-2.17-2.41-4.52-2.41-7,0-4.88,4.84-10.55,11.09-10.55,4.61,0,7.9,1.55,9.8,4.61l-2.3,1.42c-1.38-2.23-3.84-3.32-7.51-3.32-4.64,0-8.37,4.29-8.37,7.83,0,2.4.23,3.68,1.58,5Zm-4.83,36.53a13.54,13.54,0,0,1-4.21-26.42l.85,2.57A10.84,10.84,0,0,0,417,205.91l.83,2.58a13.74,13.74,0,0,1-4.19.65Zm89.08,47.34c-14.1,0-25-7.31-29.49-19.88l2.55-.91c6.22,17.5,22.62,18.43,29.37,18,10.73-.66,18.92-5.54,19.84-9.69a3.87,3.87,0,0,0-.71-3.64c-3.56-4.17-17.2-3.84-27.14-3.22l-.17-2.7c17.19-1.06,26,.18,29.38,4.16a6.6,6.6,0,0,1,1.29,6c-1.32,5.94-11.13,11.13-22.33,11.82-.86.05-1.73.08-2.59.08Zm0,0"/><path fill="#c82833" d="M525.87,240.63l-.5-2.65c11.93-2.22,18.61-12.61,18.32-28.53-.19-10.81-3.06-19-8.28-23.75-3.78-3.42-8.69-4.9-14.57-4.42l-.22-2.7c6.67-.54,12.25,1.17,16.61,5.11,5.8,5.25,9,14.14,9.17,25.72.31,17.1-7.36,28.79-20.53,31.22Zm0,0"/><path fill="#c82833" d="M530.63,182a35.07,35.07,0,0,0-8.2-16.4c-11.17-12.74-23.95-15.54-33.39-7.28a18.17,18.17,0,0,0-5.52,9.32l-2.61-.7a20.94,20.94,0,0,1,6.35-10.65c10.52-9.22,25.12-6.26,37.21,7.53a37.72,37.72,0,0,1,8.82,17.67Zm-108.74,36c-7.15,0-12.73-3.86-12.73-8.78a6.41,6.41,0,0,1,.28-1.89l2.59.81a3.62,3.62,0,0,0-.16,1.08c0,3.3,4.58,6.07,10,6.07a18.32,18.32,0,0,0,5.6-.85l.92,2.55a20.83,20.83,0,0,1-6.51,1Zm0,0"/><path fill="#c82833" d="M433.62,232.09a9.47,9.47,0,0,1-8.48-13.71c2.07-4.17,7.62-14.23,14.2-17.52,7.78-3.88,16.47-2.91,20.64-2.45l.16,0a77.71,77.71,0,0,0,9.83-3.91c5.7-3,15-5.49,23.21-3a17.35,17.35,0,0,1,4.06-5.85l.25-.27,2.24,1.52a4.14,4.14,0,0,1-.54.63c-.86.88-3.45,3.55-3.68,5.85l-.17,1.77-1.66-.62c-7.7-2.91-16.9-.54-22.44,2.39a77.47,77.47,0,0,1-10.67,4.21l-.24.06-.66-.08c-3.89-.42-12-1.33-19.11,2.19-5.87,2.92-11.05,12.37-13,16.3a6.8,6.8,0,0,0-.36,5.18,6.81,6.81,0,0,0,6.42,4.62c2.19,0,4.27-1.33,6.18-3.95a19.39,19.39,0,0,0,3.65-8.52l.28-2,1.75,1.05a11.28,11.28,0,0,0,9.2.61,5.09,5.09,0,0,0,3.3-2.92l.57-1.76,1.52,1.07c2.71,1.94,8.45,2.12,12.79.41,2.3-.91,3.76-2.19,4-3.53l.41-2L479,209a12.07,12.07,0,0,0,9.58,1.67c8.84-1.79,17.6-10.11,22-17.07l2.29,1.43c-4.7,7.46-14.14,16.35-23.76,18.28a14.94,14.94,0,0,1-10.24-1.22,9.86,9.86,0,0,1-5,3.79c-4,1.58-10,2-14,.09a8.58,8.58,0,0,1-4.2,3.13,14.32,14.32,0,0,1-9.85,0A23.29,23.29,0,0,1,442,227c-2.46,3.36-5.27,5.06-8.38,5.06Zm0,0"/><path fill="#c82833" d="M429.3,210.9a16.09,16.09,0,0,1-6.85-1.92l1.33-2.38c.06.05,6.12,3.32,8.55.33a30.29,30.29,0,0,1,3.89-4c.58-1.95-3-5.43-6.91-7.79l1.4-2.32c4.83,2.89,9.79,7.66,7.84,11.55l-.36.46a25.66,25.66,0,0,0-3.76,3.81,6.31,6.31,0,0,1-5.13,2.25Zm31-9.72-.66-.08a51,51,0,0,0-9-.36,3.63,3.63,0,0,1-2.92-.9c-2.94-2.16-6.27-8.21-6.71-14.6l2.7-.2c.38,5.5,3.19,10.81,5.59,12.59.63.48.92.44.94.44a52.4,52.4,0,0,1,9.68.34l.17,0a74.83,74.83,0,0,0,9.83-3.91l1.27,2.39a76.22,76.22,0,0,1-10.67,4.21Zm0,0"/><path fill="#c82833" d="M469.44,197.31a5.61,5.61,0,0,1-3-1,10.11,10.11,0,0,1-4.43-7.92h2.71a7.39,7.39,0,0,0,3.18,5.63,2.33,2.33,0,0,0,2.15.41,45.66,45.66,0,0,1,8.81-3.18c1.57-1.62,1.81-5.91.53-10.21l2.61-.77c1.42,4.79,1.46,10.75-1.63,13.28l-.27.21-.32.06a41.31,41.31,0,0,0-8.61,3.08,3.93,3.93,0,0,1-1.73.37ZM494,272.13a2.82,2.82,0,0,1-.61,2.36,2.88,2.88,0,0,1-2.22,1,2.84,2.84,0,0,1-2.69-1.93c-2.51-7.2-9.65-24.72-17.41-35.32-1,.18-2.18.24-3.24.36,8.29,10.74,16.07,30.05,18.08,35.85a5.58,5.58,0,0,0,9.56,1.74,5.62,5.62,0,0,0,1.19-4.6l-3-16.25c-1-.22-2-1.25-3-1.55Zm-34.44-33.2c-14.37,0-23.23-3.22-23.75-8.63l2.7-.25c.34,3.64,9,6.17,21.05,6.17,13.23,0,18.19-1.45,21.25-6.24l2.29,1.46c-4.05,6.33-11.1,7.49-23.54,7.49Zm55.9-41.7a6.38,6.38,0,0,1-6.48-6.1h2.71a3.69,3.69,0,0,0,3.77,3.39,4,4,0,0,0,2.48-1.28l1.9,1.93a6.45,6.45,0,0,1-4.38,2.06Zm9.28,11a8.72,8.72,0,0,1,2.77-7.4,7.81,7.81,0,0,1,7.05-2.28l-.72,2.61.36-1.3-.34,1.3c-.09,0-2.2-.5-4.49,1.65a6.08,6.08,0,0,0-2,5Zm-47.43,2.91a5.78,5.78,0,0,1-2.12-4.45c0-3.81,3.89-7.18,4.05-7.32l1.76,2.06c-.85.74-3.09,3.14-3.1,5.29a3.12,3.12,0,0,0,1.2,2.39ZM458,214.64c-.15-.18-1.5-1.9-2.74-6.65l2.62-.68c1.08,4.13,2.21,5.59,2.22,5.6ZM433.9,175.19a9.49,9.49,0,0,1-6.6-9.55l2.7.14c0,.21-.18,5.34,4.69,6.83Zm37.44-1.45a4.1,4.1,0,0,0-6-.68l-1.88-2a6.72,6.72,0,0,1,4.63-1.84,6.57,6.57,0,0,1,5.59,3Zm-28.18,45a4.72,4.72,0,0,0-1.29-3.28,3.17,3.17,0,0,0-2.72-.36l-.58-2.64a5.67,5.67,0,0,1,5,.91c2.23,1.79,2.29,5,2.29,5.36h-2.71Zm71.46,12a5.44,5.44,0,0,1-4-1.59,5.76,5.76,0,0,1-1-6.75l2.34,1.37a3,3,0,0,0,.62,3.46c1.16,1.17,3,1.09,5.25-.19l1.36,2.34a9.25,9.25,0,0,1-4.55,1.36Zm-19.82-3.92c-3.33-3.07-2.73-5.81-2.06-7.18a8.49,8.49,0,0,1,8-4.22l-.43,2.68a5.81,5.81,0,0,0-5.13,2.72c-.6,1.21-.1,2.57,1.46,4Zm0,0"/><path fill="#b6b7b7" d="M411.55 312.68a12.78 12.78 0 016.25 3.82c4-1.78 3.92-6.28 3.92-6.48l2.7-.14a9.65 9.65 0 01-5 8.86 12.8 12.8 0 011.7 6.38c.42 0 .82-.06 1.22-.06A12.93 12.93 0 01435.29 338h-2.71a10.21 10.21 0 00-10.2-10.19 10.41 10.41 0 00-2.41.31l-1.94.33.3-2a9.24 9.24 0 00.12-1.31 10.14 10.14 0 00-8.6-10l-1.55-.3.49-1.51c.3-.93-.29-5.66-1.1-6.66l2.1-1.72C410.89 306.26 411.63 310.23 411.55 312.68zM349.36 311.56a9.9 9.9 0 0110.55 5.64l-2.4 1.24a7.24 7.24 0 00-7.83-4.19 7.92 7.92 0 00-6 4.17 9.85 9.85 0 00-.54 8.65l-2.45 1.14a12.61 12.61 0 01.63-11.11A10.54 10.54 0 01349.36 311.56z"/><path fill="#ef3e3b" d="M324.39,384.53a7,7,0,0,0-.3,4.29c1.32,5.94,11.13,11.12,22.33,11.81.86.05,1.73.09,2.59.09,13.66,0,24.32-6.88,29-18.75,3.7.92,8.29,1.2,14.1,1.2,13.1,0,21.61-2.69,23.4-7.26a8.21,8.21,0,0,0,2.55.42,9.47,9.47,0,0,0,8.48-13.71c-.09-.19-.2-.4-.31-.62a22.49,22.49,0,0,0,3.56.29c7.15,0,12.73-3.85,12.73-8.77a7.27,7.27,0,0,0-.13-.92,13.45,13.45,0,0,0,6-21.48c-1.3-9.76-5.29-16.47-12.79-21.52-.19-4.81-4.94-10.25-11.06-10.25a15.45,15.45,0,0,0-3.67.44c-7.22-6.77-17.31-8.1-28.78-8.81-2.44-4.44-6.5-6.76-11-6.26a8.83,8.83,0,0,0-7.07,4.67c-7.38,0-16.16,2.14-24.77,5.92-7.35.52-15.12,4.85-22.06,12.77a37.64,37.64,0,0,0-8.67,17,19.75,19.75,0,0,0-4.09,2.82c-5.8,5.26-9,14.15-9.17,25.73C305,370.1,312.13,381.51,324.39,384.53Z"/><path fill="#b6b7b7" d="M324.2,345a8.78,8.78,0,0,1,2.81,5.86c.12,0,.24,0,.35,0,5.67.14,7.68,4.25,9.63,8.22a32,32,0,0,0,3.15,5.46c3.13,4,9.31,5.13,15.16,4.25,1.36-1.36,1.8-2.63,1.24-3.78a5.83,5.83,0,0,0-5.13-2.72l-.43-2.67a8.47,8.47,0,0,1,8,4.22,5.07,5.07,0,0,1,.15,4.1,23.54,23.54,0,0,0,2.74-1.05c14.16-6.55,30.26,4.74,30.94,5.23l-1.57,2.2c-.16-.11-15.51-10.86-28.23-5-6.23,2.87-14.42,3.46-20.29.6a5.87,5.87,0,0,1-1.64,3.39,5.45,5.45,0,0,1-4,1.6,9.25,9.25,0,0,1-4.55-1.36l1.36-2.34c2.23,1.28,4.09,1.35,5.25.19a3.08,3.08,0,0,0,.65-3.38,12.19,12.19,0,0,1-1.81-1.85,34.33,34.33,0,0,1-3.45-5.93c-2.06-4.21-3.42-6.6-7.25-6.7h-.11a6.1,6.1,0,0,0-4.11,1.8,5.62,5.62,0,0,0-1.78,4,11.44,11.44,0,0,0,4,8.45l.51.52-2,1.86-.45-.45a14.07,14.07,0,0,1-4.85-10.37,8.28,8.28,0,0,1,2.59-5.92,9.23,9.23,0,0,1,3.15-2,6.15,6.15,0,0,0-2-4.42,5.22,5.22,0,0,0-4.47-1.66l-.72-2.61A7.8,7.8,0,0,1,324.2,345Z"/><path fill="#ef3e3b" d="M358.27,399.11c1-.23,19.1-28.11,25.61-16.23-11,12.53-16.07,30.05-18.08,35.85a5.58,5.58,0,0,1-10.75-2.86Z"/><polygon fill="#b6b7b7" points="317.87 345.35 317.87 345.34 317.87 345.34 317.87 345.35"/><polygon fill="#b6b7b7" points="317.51 344.05 317.87 345.34 317.85 345.35 317.51 344.05"/><path fill="#c82833" d="M349.22,295.35c8.74-3.86,17.67-6,25.12-6v2.71c-7,0-15.74,2.09-24,5.74ZM420,302.66c-6.82-7.2-17.26-8.35-29.21-9l.18-2.71c12.52.72,23.49,2,31,9.89l-2,1.86Zm25.82,29.19c-1.19-9.61-5.13-16-12.75-20.75l1.43-2.3c8.39,5.21,12.71,12.22,14,22.71l-2.69.34ZM432.58,338a10.21,10.21,0,0,0-10.2-10.19,10.41,10.41,0,0,0-2.41.31l-1.94.33.3-2a9.24,9.24,0,0,0,.12-1.31,10.13,10.13,0,0,0-8.6-10l-1.55-.3.49-1.51c.3-.92-.29-5.66-1.1-6.66l2.1-1.72c1.1,1.36,1.84,5.33,1.76,7.78a12.8,12.8,0,0,1,9.61,12.44c.42,0,.82-.06,1.22-.06A12.93,12.93,0,0,1,435.29,338Zm0,0"/><path fill="#c82833" d="M397.8,327.32c0-.1,2.5-10.75-2.06-17.69-2.94-4.5-4-9.6-4.81-13.32a19.65,19.65,0,0,0-1-3.66c-2.69-5.32-6.83-5.42-8.5-5.24-2.61.32-4.76,1.92-5.24,3.92-1.18,5,.51,9.88,5.33,15.49,1.68,1.95,2.71,5,3.05,8.93l-2.7.23c-.3-3.34-1.13-5.9-2.41-7.39-5.36-6.24-7.29-12.09-5.9-17.89.74-3.13,3.78-5.54,7.55-6,4.63-.52,8.83,2,11.23,6.7a20.18,20.18,0,0,1,1.2,4.32c.74,3.52,1.77,8.33,4.43,12.39,5.2,7.94,2.54,19.34,2.43,19.83Zm-6.56,47c-.16-.11-15.51-10.86-28.23-5-8.18,3.77-19.77,3.62-25-3.15a34.33,34.33,0,0,1-3.45-5.93c-2.06-4.21-3.42-6.6-7.25-6.7h-.11a6.1,6.1,0,0,0-4.11,1.8,5.62,5.62,0,0,0-1.78,4,11.44,11.44,0,0,0,4,8.45l.51.52-2,1.86-.45-.45a14.07,14.07,0,0,1-4.85-10.37,8.32,8.32,0,0,1,2.59-5.93,8.79,8.79,0,0,1,6.18-2.57c5.67.14,7.68,4.25,9.63,8.22a32,32,0,0,0,3.15,5.46c4.36,5.63,14.68,5.61,21.73,2.35,14.16-6.55,30.26,4.74,30.94,5.22l-1.57,2.21Zm-50.57-46.1a12.61,12.61,0,0,1,.63-11.11,10.54,10.54,0,0,1,8.06-5.54,9.9,9.9,0,0,1,10.55,5.64l-2.4,1.24a7.24,7.24,0,0,0-7.83-4.19,7.92,7.92,0,0,0-6,4.17,9.85,9.85,0,0,0-.54,8.65l-2.45,1.14Zm90.71-13.31c1.35-1.34,1.58-2.62,1.58-5,0-3.54-3.73-7.83-8.37-7.83-3.67,0-6.13,1.09-7.51,3.32l-2.3-1.43c1.9-3.06,5.19-4.6,9.8-4.6,6.25,0,11.09,5.67,11.09,10.55,0,2.43-.19,4.77-2.41,7Zm6.71,38.48a13.74,13.74,0,0,1-4.19-.65l.83-2.59a10.84,10.84,0,0,0,6.72-20.62l.85-2.57a13.55,13.55,0,0,1-4.21,26.43ZM349,400.72c-.86,0-1.73,0-2.59-.09-11.2-.69-21-5.87-22.33-11.81a6.6,6.6,0,0,1,1.29-6c3.4-4,12.19-5.22,29.38-4.16l-.17,2.7c-9.94-.63-23.58-1-27.14,3.22a3.87,3.87,0,0,0-.71,3.64c.92,4.15,9.11,9,19.84,9.68,6.75.44,23.15-.5,29.37-18l2.55.91C374,393.41,363.11,400.72,349,400.72Zm0,0"/><path fill="#c82833" d="M325.85,384.87c-13.17-2.43-20.84-14.12-20.53-31.22.2-11.58,3.37-20.47,9.17-25.73,4.36-3.93,9.94-5.65,16.61-5.11l-.22,2.7c-5.88-.47-10.79,1-14.57,4.43-5.23,4.73-8.09,12.94-8.28,23.75-.29,15.92,6.39,26.31,18.32,28.52l-.5,2.66Zm0,0"/><path fill="#c82833" d="M318.43,325.75a37.58,37.58,0,0,1,8.82-17.67c12.09-13.79,26.69-16.75,37.21-7.54a21,21,0,0,1,6.35,10.65l-2.61.7a18.14,18.14,0,0,0-5.52-9.31c-9.44-8.26-22.22-5.47-33.39,7.28a35,35,0,0,0-8.2,16.39Zm111.4,36.54a21.14,21.14,0,0,1-6.51-1l.92-2.55a18.33,18.33,0,0,0,5.6.84c5.43,0,10-2.77,10-6.06a3.62,3.62,0,0,0-.16-1.08l2.59-.81a6.36,6.36,0,0,1,.28,1.89c0,4.92-5.58,8.77-12.73,8.77Zm0,0"/><path fill="#c82833" d="M418.1,376.33c-3.11,0-5.92-1.71-8.38-5.06a23.38,23.38,0,0,1-3.79-7.95,14.37,14.37,0,0,1-9.85,0,8.65,8.65,0,0,1-4.21-3.13c-4.05,1.94-10,1.49-14-.1a9.76,9.76,0,0,1-5-3.79,14.94,14.94,0,0,1-10.24,1.23c-9.62-1.94-19.06-10.83-23.76-18.28l2.29-1.44c4.4,7,13.16,15.29,22,17.08a12.11,12.11,0,0,0,9.58-1.68l1.69-1.19.41,2c.27,1.33,1.73,2.61,4,3.52,4.34,1.72,10.08,1.54,12.79-.4l1.52-1.08.57,1.77a5.12,5.12,0,0,0,3.3,2.92,11.32,11.32,0,0,0,9.2-.61l1.75-1.05.28,2a19.41,19.41,0,0,0,3.65,8.51c1.91,2.62,4,4,6.18,4a6.81,6.81,0,0,0,6.42-4.62,6.8,6.8,0,0,0-.36-5.18c-2-3.93-7.13-13.38-13-16.3-7.07-3.53-15.22-2.62-19.11-2.19l-.66.08-.24-.06a77.48,77.48,0,0,1-10.67-4.22c-5.54-2.93-14.74-5.3-22.44-2.39l-1.66.63-.17-1.77c-.23-2.31-2.82-5-3.68-5.85a3.67,3.67,0,0,1-.54-.64l2.24-1.51.25.26a17.41,17.41,0,0,1,4.06,5.86c8.22-2.46,17.51,0,23.21,3a77.73,77.73,0,0,0,9.83,3.92l.16,0c4.17-.47,12.86-1.43,20.64,2.44,6.58,3.29,12.13,13.36,14.2,17.53a9.48,9.48,0,0,1-8.48,13.71Zm0,0"/><path fill="#c82833" d="M422.42,355.14a6.29,6.29,0,0,1-5.13-2.26,26.67,26.67,0,0,0-3.76-3.81l-.36-.45c-1.95-3.9,3-8.66,7.84-11.55l1.4,2.32c-3.93,2.36-7.49,5.84-6.91,7.79a29.68,29.68,0,0,1,3.89,4c2.43,3,8.49-.29,8.55-.33l1.33,2.37a15.89,15.89,0,0,1-6.85,1.93Zm-31.27-9.78a76.24,76.24,0,0,1-10.67-4.22l1.27-2.39a74.84,74.84,0,0,0,9.83,3.92l.17,0a50.68,50.68,0,0,1,9.68-.34s.31,0,.94-.44c2.4-1.78,5.21-7.1,5.59-12.59l2.7.19c-.44,6.39-3.77,12.45-6.71,14.61a3.72,3.72,0,0,1-2.92.9,49.14,49.14,0,0,0-9,.36l-.66.08Zm.24.06"/><path fill="#c82833" d="M382.27,341.55a4.06,4.06,0,0,1-1.72-.37,40.63,40.63,0,0,0-8.62-3.08l-.31-.07-.27-.21c-3.09-2.53-3.05-8.49-1.63-13.27l2.61.76c-1.28,4.31-1,8.59.53,10.22a44.37,44.37,0,0,1,8.81,3.18,2.36,2.36,0,0,0,2.15-.41,7.42,7.42,0,0,0,3.18-5.63h2.71a10.09,10.09,0,0,1-4.43,7.91,5.54,5.54,0,0,1-3,1ZM361,398.07c-.94.29-2,1.32-2.95,1.55l-3,16.25a5.64,5.64,0,0,0,1.19,4.6,5.57,5.57,0,0,0,9.55-1.74c2-5.8,9.8-25.11,18.09-35.85-1.06-.12-2.27-.18-3.24-.36-7.76,10.59-14.9,28.11-17.41,35.32a2.85,2.85,0,0,1-2.69,1.93,2.88,2.88,0,0,1-2.22-1,2.83,2.83,0,0,1-.61-2.36Zm31.14-14.9c-12.44,0-19.49-1.16-23.54-7.49l2.29-1.46c3.06,4.79,8,6.24,21.25,6.24,12.06,0,20.71-2.53,21.05-6.17l2.7.25c-.52,5.41-9.38,8.63-23.75,8.63Zm-55.9-41.71a6.49,6.49,0,0,1-4.38-2l1.9-1.94a3.93,3.93,0,0,0,2.48,1.28,3.68,3.68,0,0,0,3.77-3.38h2.71a6.37,6.37,0,0,1-6.48,6.09ZM324.31,352a6.07,6.07,0,0,0-2-5c-2.29-2.15-4.4-1.67-4.49-1.65l-.34-1.3.36,1.3-.72-2.62A7.8,7.8,0,0,1,324.2,345a8.72,8.72,0,0,1,2.77,7.4Zm48.3,1.31a3.14,3.14,0,0,0,1.2-2.4c0-2.14-2.25-4.55-3.1-5.29l1.76-2.05c.16.14,4,3.5,4,7.31a5.8,5.8,0,0,1-2.12,4.46Zm19.05,3.85s1.14-1.47,2.22-5.6l2.62.68c-1.24,4.75-2.59,6.47-2.74,6.64ZM417,316.85c4.87-1.5,4.69-6.62,4.69-6.83l2.7-.14a9.5,9.5,0,0,1-6.6,9.55Zm-38.94-.33a6.57,6.57,0,0,1,5.59-3,6.67,6.67,0,0,1,4.63,1.84l-1.88,2a4.1,4.1,0,0,0-6.05.68ZM407.2,363h-1.35c0-.36.06-3.58,2.29-5.37a5.74,5.74,0,0,1,5-.91l-.58,2.65a3.14,3.14,0,0,0-2.72.36,4.72,4.72,0,0,0-1.29,3.28Zm-70.1,12a9.25,9.25,0,0,1-4.55-1.36l1.36-2.34c2.23,1.28,4.09,1.35,5.25.19a3,3,0,0,0,.62-3.46l2.34-1.37a5.75,5.75,0,0,1-1,6.74,5.45,5.45,0,0,1-4,1.6Zm18-5.91c1.56-1.45,2.06-2.8,1.46-4a5.83,5.83,0,0,0-5.13-2.72l-.43-2.67a8.47,8.47,0,0,1,8,4.22c.67,1.36,1.27,4.1-2.06,7.17Zm1.84,2"/><circle cx="361.78" cy="313.77" r="2.3" fill="#ffc065"/><circle cx="346.48" cy="303.42" r="2.3" fill="#ffc065"/><circle cx="361.7" cy="308.09" r="1.79" fill="#ffc065"/><circle cx="352.68" cy="318.73" r="2.3" fill="#ffc065"/><circle cx="337.3" cy="318.73" r="2.3" fill="#ffc065"/><circle cx="329.52" cy="317.05" r="3.28" fill="#ffc065"/><circle cx="354.54" cy="305.72" r="3.49" fill="#ffc065"/><circle cx="338.86" cy="309.2" r="5.16" fill="#ffc065"/><circle cx="335" cy="326.66" r="3.37" fill="#ffc065"/><circle cx="420.73" cy="344.45" r="2.3" fill="#ffc065"/><circle cx="431.57" cy="350.13" r="2.3" fill="#ffc065"/><circle cx="424.43" cy="349.62" r="1.79" fill="#ffc065"/><circle cx="428.77" cy="335.35" r="2.3" fill="#ffc065"/><circle cx="438.25" cy="334.15" r="2.3" fill="#ffc065"/><circle cx="444.68" cy="336.33" r="3.28" fill="#ffc065"/><circle cx="427.92" cy="342.59" r="3.49" fill="#ffc065"/><circle cx="439.06" cy="344.45" r="5.16" fill="#ffc065"/><circle cx="436.95" cy="326.95" r="3.37" fill="#ffc065"/><rect width="84.4" height="32.23" x="305.31" y="188.81" fill="#454851"/><rect width="84.4" height="32.23" x="460.51" y="342.76" fill="#454851"/></g><g><path fill="#c9effb" d="M1098.08,83.91V408.6a5.31,5.31,0,0,1-5.31,5.31H667.91a5.3,5.3,0,0,1-5.3-5.31V83.91a5.3,5.3,0,0,1,5.3-5.3h424.86A5.3,5.3,0,0,1,1098.08,83.91Z"/><path fill="#a8e5f9" d="M706.4 78.61H667.91a5.3 5.3 0 00-5.3 5.3V408.6a5.3 5.3 0 005.3 5.31H806.5c.62-18.41-.85-37.25.35-55.59a9.69 9.69 0 00-1.32-4.91c-8.34-15.84-46.41 3.46-69.58-6.51-44.73-19.26-61.37-159.4-31-263.52C705.43 81.87 705.91 80.27 706.4 78.61zM851.79 78.61H813.31a5.29 5.29 0 00-5.3 5.3V408.6a5.3 5.3 0 005.3 5.31H951.9c.62-18.41-.85-37.25.35-55.59a9.72 9.72 0 00-1.33-4.91c-8.33-15.84-46.4 3.46-69.57-6.51-44.74-19.26-61.37-159.4-31-263.52C850.83 81.87 851.3 80.27 851.79 78.61zM997.62 78.61H959.13a5.3 5.3 0 00-5.3 5.3V408.6a5.3 5.3 0 005.3 5.31h138.59c.63-18.41-.84-37.25.35-55.59a9.59 9.59 0 00-1.32-4.91c-8.33-15.84-46.4 3.46-69.58-6.51-44.73-19.26-61.37-159.4-31-263.52C996.65 81.87 997.13 80.27 997.62 78.61z"/><path fill="#fc7e85" d="M1092.77,78.6H667.91a5.3,5.3,0,0,0-5.3,5.31V253.14h435.47V83.91A5.31,5.31,0,0,0,1092.77,78.6Z"/><path fill="#ed6471" d="M705,83.38c.44-1.51.92-3.12,1.41-4.78H667.91a5.3,5.3,0,0,0-5.3,5.31V253.14h30.47C686.08,201.55,689.16,137.58,705,83.38Z"/><rect width="5" height="160.76" x="951.33" y="253.14" fill="#89dbf6"/><rect width="5" height="160.76" x="804.35" y="253.14" fill="#89dbf6"/><rect width="435.47" height="3" x="662.61" y="92.03" fill="#ff0068"/><rect width="435.47" height="3" x="662.61" y="108.11" fill="#ff0068"/><rect width="435.47" height="3" x="662.61" y="124.18" fill="#ff0068"/><rect width="435.47" height="3" x="662.61" y="140.26" fill="#ff0068"/><rect width="435.47" height="3" x="662.61" y="156.33" fill="#ff0068"/><rect width="435.47" height="3" x="662.61" y="172.41" fill="#ff0068"/><rect width="435.47" height="3" x="662.61" y="188.49" fill="#ff0068"/><rect width="435.47" height="3" x="662.61" y="204.56" fill="#ff0068"/><rect width="435.47" height="3" x="662.61" y="220.64" fill="#ff0068"/><rect width="435.47" height="3" x="662.61" y="236.71" fill="#ff0068"/><rect width="5" height="219.55" x="1064.78" y="78.6" fill="#89dbf6"/><circle cx="1067.28" cy="306.57" r="8.41" fill="#89dbf6"/><path fill="#87dbf6" d="M1110.23,64.83H650.45a5.74,5.74,0,0,0-5.74,5.74V422a5.74,5.74,0,0,0,5.74,5.74h459.78A5.74,5.74,0,0,0,1116,422V70.57A5.74,5.74,0,0,0,1110.23,64.83ZM1098.08,408.6a5.31,5.31,0,0,1-5.31,5.31H667.91a5.3,5.3,0,0,1-5.3-5.31V83.91a5.3,5.3,0,0,1,5.3-5.3h424.86a5.3,5.3,0,0,1,5.31,5.3Z"/></g><g><rect width="230.07" height="329.11" x="883.29" y="506.06" fill="#cc7829"/><rect width="4" height="248.78" x="996.32" y="506.06" fill="#a04833"/><rect width="230.07" height="4" x="883.29" y="752.85" fill="#a04833"/><rect width="230.07" height="4" x="883.29" y="690.46" fill="#a04833"/><rect width="230.07" height="4" x="883.29" y="628.07" fill="#a04833"/><rect width="230.07" height="4" x="883.29" y="565.68" fill="#a04833"/><rect width="59.95" height="8.48" x="910.98" y="532.92" fill="#a04833" rx="4.24"/><rect width="59.95" height="8.48" x="1025.33" y="532.92" fill="#a04833" rx="4.24"/><rect width="59.95" height="8.48" x="910.98" y="591.12" fill="#a04833" rx="4.24"/><rect width="59.95" height="8.48" x="1025.33" y="591.12" fill="#a04833" rx="4.24"/><rect width="59.95" height="8.48" x="910.98" y="657.02" fill="#a04833" rx="4.24"/><rect width="59.95" height="8.48" x="1025.33" y="657.02" fill="#a04833" rx="4.24"/><rect width="59.95" height="8.48" x="910.98" y="719.41" fill="#a04833" rx="4.24"/><rect width="59.95" height="8.48" x="1025.33" y="719.41" fill="#a04833" rx="4.24"/><rect width="79.16" height="11.2" x="958.75" y="775.76" fill="#a04833" rx="5.6"/></g><g data-name="Doctor/Head/Female"><path d="M775.33,286c10.61-2.56,46.77,10.62,57.81,57.66,6,25.61,1.24,29.67,5.76,37,5.89,9.5,12.91,8.62,14.4,14.88,2.66,11.15-12.21,29.35-29.28,33.12-28.53,6.32-55.85-29.32-65.76-42.24-12.94-16.88-27.26-35.55-21.12-53.28S746,293.11,775.33,286Z"/><ellipse cx="781.76" cy="317.01" rx="26.92" ry="29.45"/><path fill="#ea9d7d" d="M754,359.5l.77.13a21.91,21.91,0,0,0,9.71-.83h0q1-.29,1.92-.66h0a25.77,25.77,0,0,0,2.85-1.29l1-.52c.62-.34,1.24-.72,1.85-1.12a37.22,37.22,0,0,0,9.22-8.74A41.29,41.29,0,0,0,785.2,340a4.6,4.6,0,0,0,1.3.47c3.39.66,6.88-2.64,7.8-7.38s-1.07-9.1-4.46-9.76l-.1,0c1.52-16.08-4.14-30.22-13.93-35.06a16.25,16.25,0,0,0-3.84-1.36l-.48-.11c-10.2-2-20.79,5.65-27.16,18.25l0,0a53.2,53.2,0,0,0-3.36,8.39c-.15.48-.29,1-.42,1.45-.41,1.44-.76,2.91-1,4.42a72.43,72.43,0,0,0-1.3,10.63C737.47,345.55,742.73,357.31,754,359.5Z"/><path fill="#ea9d7d" d="M758.3,370.32c.63-2.21-2-7.61-3.6-10.72,10.85,1.67,23.78-6,30.5-19.56a4.6,4.6,0,0,0,1.3.47s1,28.21,7.17,28.56c7.15,6.13,30.51,26.89,25.75,36.53-4,8.08-25.56,3.91-57.72-2.3a16.25,16.25,0,0,1-8.39-4c-6.74-6.43-4.9-18-3.95-20.61C750.59,375.28,757.4,373.52,758.3,370.32Z"/><path fill="#d18165" d="M787.41 351.75c-.71-6-.91-11.24-.91-11.24a4.6 4.6 0 01-1.3-.47c-6.72 13.56-19.65 21.23-30.5 19.56a47.94 47.94 0 013.13 7.06c.27.07.55.14.83.19C768.45 368.76 780.11 362.85 787.41 351.75zM790 327.57a4.77 4.77 0 011.8 2.34A5.47 5.47 0 01792 333a5.54 5.54 0 01-1.42 2.72 6.11 6.11 0 01-1.14 1 7.08 7.08 0 01-1.36.59 13.63 13.63 0 01.64-1.27c.19-.41.42-.77.57-1.17a10.28 10.28 0 00.75-2.23A13.74 13.74 0 00790 327.57z"/><path d="M744.32,305.09s7.45-10.34,8.09-7.57c2.29,10.05,14.12,17.81,26.87,30,8.9,8.52,10.56-4.19,10.56-4.19s11.39-28.41-.92-35.17-24.64-6.91-36.94,0S744.32,305.09,744.32,305.09Z"/><path fill="#d18165" d="M793.67,369.07c-3.73-.21-5.58-10.78-6.45-19l-5.47,2.46-4.69,9.8s9,2,4.69,11.2c-3.83,8.29-14,27.11-28.7,25.5,2.13,1.18,5.07,2.71,8.65,4.27,23.55,10.24,55.68,13.47,60.36,4.22S803.36,377.3,793.67,369.07Z"/><path fill="#be3e5f" d="M758.17,343.67a82.31,82.31,0,0,0-10.67,4s-.82-5.32,3.4-6.95S758.17,343.67,758.17,343.67Z"/><path fill="#d18165" d="M748.36,317.73a19.6,19.6,0,0,1,.12,6.26,10.42,10.42,0,0,1-.92,3.18c-.28.58-.55.93-.81,1.38s-.51.84-.73,1.26a5.42,5.42,0,0,0-.8,2.36,1.12,1.12,0,0,0,.29.82,3,3,0,0,0,.94.63,24.17,24.17,0,0,0,5.84,1,12.37,12.37,0,0,1-6.34.44,3.8,3.8,0,0,1-1.68-.88,3,3,0,0,1-.94-1.92,6.41,6.41,0,0,1,.93-3.44c.26-.48.54-.93.83-1.37s.62-.89.82-1.23a11.3,11.3,0,0,0,1.05-2.6C747.52,321.76,747.91,319.76,748.36,317.73Z"/><path d="M765.43 314.61a43.14 43.14 0 01-6 .64 19.12 19.12 0 01-2.92-.15c-1-.09-1.94-.36-3-.56a6.79 6.79 0 002.73 1.72 8.9 8.9 0 003.23.52 10.4 10.4 0 003.19-.58A8.07 8.07 0 00765.43 314.61zM740.53 314.93c.27.09.55.16.83.23a10.88 10.88 0 001.59.23 10.1 10.1 0 001.65 0 8.21 8.21 0 003.1-.86c-1.48-.15-2.88-.28-4.23-.51-.6-.09-1.18-.21-1.76-.35-.26-.05-.51-.11-.76-.18C740.8 314 740.66 314.44 740.53 314.93zM742 325.3a1.53 1.53 0 001.79-1.22l.86-4.39a1.53 1.53 0 00-3-.59l-.85 4.4A1.53 1.53 0 00742 325.3zM757.45 326.24a1.54 1.54 0 001.8-1.21l.86-4.4a1.53 1.53 0 10-3-.59l-.86 4.4A1.54 1.54 0 00757.45 326.24z"/></g><g data-name="Doctor/Bottom"><path fill="#cc7829" d="M687.06,822.82c10.81-7.91,35.5-16.73,42.4-31.5,3.71,4.53,24.08,3.33,32,3.06h0s5.88,13.22,5.23,21.93-1.38,18.38-1.38,18.38l-14.67.42.25-9.75s-8.13-1.61-13.13,2.49-18.63,8.79-32.63,6.78S676.25,830.72,687.06,822.82Z"/><path fill="#7c2f13" d="M766.69,814.19c0-.65-.06-1.31-.13-2a.37.37,0,0,1,0-.11c-.08-.7-.18-1.4-.3-2.11a.69.69,0,0,0,0-.13c-.12-.68-.25-1.37-.4-2.06l0-.15c-.32-1.44-.69-2.85-1.09-4.19l0-.1c-.4-1.36-.83-2.64-1.23-3.79h0c-1.08-3.08-2-5.19-2-5.19h0c-1.9.07-4.53.19-7.48.27a14,14,0,0,0-1.45,1.78c-5.15,8.63-13.25,19-25.93,26.06-13.79,7.66-28.68,9-35.69,9.72,4,1,9.18,1.7,14.22,2.43.9.13,1.79.22,2.68.3h.2c.76.06,1.51.11,2.25.14h1.2c.43,0,.86,0,1.29,0l1.22,0c.41,0,.82,0,1.22-.06s.81-.06,1.21-.09l1.19-.11,1.17-.14,1.16-.16,1.13-.19,1.13-.2,1.08-.23,1.09-.24,1-.26,1.06-.29,1-.28,1-.32.89-.3,1-.35.81-.32c.32-.12.62-.25.92-.38l.73-.32.87-.41.63-.32.83-.45c.17-.1.36-.19.52-.29s.55-.34.81-.51l.38-.24c.36-.26.7-.51,1-.75,2.82-2.31,6.62-2.81,9.4-2.8h.06a21.61,21.61,0,0,1,3.67.31h0l-.25,9.75,3.81-.11,10.86-.31s-1.39-3.6.3-4c0-.56.08-1.17.13-1.81.21-2.75.47-6.18.73-9.65.07-1,.14-2,.22-2.91,0-.63.05-1.29,0-2C766.7,814.3,766.69,814.25,766.69,814.19Z"/><path fill="#cc7829" d="M748.41,822.82c10.81-7.91,35.5-16.73,42.4-31.5,3.71,4.53,31.71,2.22,31.71,2.22s6.14,14.07,5.49,22.78-1.38,18.38-1.38,18.38l-14.67.42.25-9.75s-8.13-1.61-13.13,2.48-18.63,8.8-32.63,6.79S737.6,830.72,748.41,822.82Z"/><path fill="#7c2f13" d="M804.31,794.08c-4.17,5.5-4.92,9.41-6.82,13.47-8.3,17.74-29.74,19.77-31.71,27l.67.1c14,2,27.63-2.69,32.63-6.79s13.13-2.48,13.13-2.48l-.25,9.75,14.67-.42s.72-9.67,1.38-18.38-5.49-22.78-5.49-22.78S813,794.32,804.31,794.08Z"/><path fill="#ffc065" d="M829.26,571.53a90.78,90.78,0,0,0,5.86-43,89.46,89.46,0,0,0-7.33-26.85s-69.81,10.36-89.34.6c0,0-15.61,138.53-16.1,150.73s6.59,139.13,6.59,139.13,19,7.64,32.63,2.44c0,0,10.74-97.31,9.11-122l.89-16.82c.54,12.2,18.24,138.08,18.24,138.08s19.53,6,32.71-.3c0,0,2.54-97.87-1.15-122.38l-.37-47Z"/><path fill="#ffaa39" d="M773.12,610.58c-2.61-30-8-58.77-9.76-58.58-1.35.14,0,15.07.48,49.31.37,27.92-.19,46.68-1,73.22-1.53,51.8-3.61,60.69-5.83,67.85a139.26,139.26,0,0,1-28.1,49.8c6.4,2.88,16.77,6.19,28.37,3.63a40.06,40.06,0,0,0,4.26-1.19s10.74-97.31,9.11-122l3.46-45.36C774,622.66,773.73,617.66,773.12,610.58Z"/><path fill="#ffaa39" d="M835.12,528.57a89.46,89.46,0,0,0-7.33-26.85s-69.81,10.36-89.34.6h0c-.75,5.69,53.66,6.82,72.13,40.89,4.58,8.47,3.47,104,4.58,130.51,2.16,51.78.73,60.79-1,68.1a139.1,139.1,0,0,1-24.43,51.6v.09c1.35.49,2.86,1,4.5,1.43,5.25,1.11,14.29,2.4,22.46.56.51-.13,1-.25,1.53-.4a36.94,36.94,0,0,0,3.89-1.4,2.36,2.36,0,0,0,.28-.12c0-.11.12-3.17.29-8.29.52-24.08,1.7-93.95-1.34-114.13l-.37-47,1-6.7v-.05a.31.31,0,0,0,0-.08l7.19-45.8h0A90.78,90.78,0,0,0,835.12,528.57Z"/><path fill="none" stroke="#fff" stroke-miterlimit="10" stroke-width="3" d="M793.78,505.44a45.53,45.53,0,0,1,1.84,5.7"/><path fill="none" stroke="#fff" stroke-dasharray="12.19 12.19" stroke-miterlimit="10" stroke-width="3" d="M797.94,523.1c1.36,10.26,1.9,24.9-.91,43.63-5.66,37.68-1.46,150.25,9,217.77"/><path fill="none" stroke="#fff" stroke-miterlimit="10" stroke-width="3" d="M807,790.52c.34,2,.68,4,1,5.91"/></g><g data-name="Doctor/Torso"><path fill="#25beef" d="M742.29,506.34H819.8a8.43,8.43,0,0,0,8.33-9.69L809.84,375.94,791,371.77c-6.73,14.27-27.45,14.92-34.07.59l-14.31,5.45a10.88,10.88,0,0,0-8.3,11.15l.15,4.5L738,502.22C738,502.52,738.11,504,742.29,506.34Z"/><path fill="#1a87c4" d="M738,502.22c5.87-2.08-2.53-49,20-40,35.47,14.21,38.05,7.83,40,3.85,4.65-9.35,14-10.9,12.72-15.78-2.25-8.77-2.88-12.11-7.38-23.22-1.51-3.73-2-12.76,0-13.5,2.32-.86,8.92,9.19,15.65,23.16l9.08,59.91a8.43,8.43,0,0,1-8.33,9.69H742.29a4.26,4.26,0,0,1-4.26-4.12Z"/><path fill="#ea9d7d" d="M633.26,446.84c-2.67-.47-7.71.35,1.59,11.85a.34.34,0,0,1-.1.06c-.45.2-2.49.93-7.06.13-5.26-.92-23-3.9-26.09-3.52-1.68.21-6.24,4,19.86,9.29a1.43,1.43,0,0,1,1.09,1.91c-.19.46-.65.8-1.6.63-2.38-.42-22.69-4.91-23.22-1.17-.38,2.72,5.07,3.33,23,6.79,0,0,2.64,1.4,0,2.31-.9.32-21.4-2.6-22.76-1.24s-4.57,3.33,26.3,7.23c0,0,.46.43-2.52,1.33-3.17,1-11.93,1.18-14.76,3.74s3.85,1.6,20.5.09l18,.26h.86a9.54,9.54,0,0,1-.56-3.07,29.58,29.58,0,0,1,.91-7.56,30.07,30.07,0,0,1,3.78-8.8l.12-.95s-1.77-2.26-4.19-5.22C641.93,455.3,635,447.15,633.26,446.84Z"/><path fill="#e3eaf3" d="M758,367V642.57H716l12-136.3s-5,6.32-12,5.64c-5.85-.56-52.78-17.76-66.13-24.78-2.12-1.12-.94-2.17-.94-4.56l.05-20.87c0-2.3-.45-2.91,1.75-2.29,15.34,4.26,45.29,12.76,50,10.07C706.44,466.18,704.88,373.6,758,367Z"/><path fill="#abbcca" d="M745.56,511.26l12.48,5.4v-54.3c-4.88-2.37-13.11-13.64-15.41-16.52-5.39-6.75-7.64-14-9.35-21.27,1.64,19.16-5.29,81.7-5.29,81.7l-12,136.3H746c-5.13-10-9.5-26.69-11.41-45.42-2.77-27.14.6-60.71.81-75.94,0-1.07,0-2.3.1-3.65A7.17,7.17,0,0,1,745.56,511.26Z"/><rect width="93.88" height="54.09" x="560.96" y="445.3" fill="#7c2f13" rx="2" transform="rotate(-90 607.9 472.34)"/><rect width="83.57" height="40.93" x="566.11" y="449.06" fill="#e3eaf3" rx="1" transform="rotate(-90 607.895 469.525)"/><path fill="#cc7829" d="M603.67,414.57h4.23a4.8,4.8,0,0,1,4.8,4.8v16.32a4.8,4.8,0,0,1-4.8,4.8h-4.23a.57.57,0,0,1-.57-.57V415.14a.57.57,0,0,1,.57-.57Z" transform="rotate(-90 607.9 427.53)"/><path fill="#cc7829" d="M605,415.82h1.36a4.4,4.4,0,0,1,4.4,4.4v2.26a4.4,4.4,0,0,1-4.4,4.4H605a0,0,0,0,1,0,0V415.82A0,0,0,0,1,605,415.82Z" transform="rotate(-90 607.9 421.35)"/><rect width="27.54" height="3" x="594.13" y="435.48" fill="#abbcca"/><rect width="27.54" height="3" x="594.13" y="443.66" fill="#abbcca"/><rect width="27.54" height="3" x="594.13" y="451.83" fill="#abbcca"/><rect width="27.54" height="3" x="594.13" y="460" fill="#abbcca"/><rect width="27.54" height="3" x="594.13" y="468.18" fill="#abbcca"/><rect width="27.54" height="3" x="594.13" y="476.35" fill="#abbcca"/><rect width="27.54" height="3" x="594.13" y="484.52" fill="#abbcca"/><rect width="27.54" height="3" x="594.13" y="492.7" fill="#abbcca"/><rect width="27.54" height="3" x="594.13" y="500.87" fill="#abbcca"/><path fill="#ea9d7d" d="M733.73,451.56c-2.68-.44-7.72.44,1.72,11.84l-.11.05c-.45.21-2.47,1-7.05.21-5.28-.86-23-3.64-26.14-3.22-1.67.23-6.18,4.08,20,9.06a1.44,1.44,0,0,1,1.12,1.9c-.2.47-.64.81-1.6.65-2.38-.39-22.75-4.66-23.23-.91-.35,2.73,5.11,3.28,23.08,6.53,0,0,2.66,1.37.07,2.31-.89.33-21.42-2.36-22.77-1s-4.53,3.39,26.38,6.94c0,0,.47.42-2.51,1.36-3.15,1-11.9,1.31-14.71,3.91s3.87,1.55,20.5-.15l18,.06.86,0a9.45,9.45,0,0,1-.59-3.06,29.31,29.31,0,0,1,.82-7.57,30,30,0,0,1,3.69-8.85l.11-.95s-1.8-2.23-4.25-5.17C742.48,459.93,735.48,451.85,733.73,451.56Z"/><path fill="#e3eaf3" d="M790.73,366.57l-1.47,114.1-35.09-13a3.93,3.93,0,0,0-5.27,3.16L746,492a3.94,3.94,0,0,0,2.16,4.07c8,3.95,32.88,16.33,48.09,24.34L809,642.57h58.1s-5.88-104-8.43-120.72.75-117.4-14.93-134.27C824.57,367,790.73,366.57,790.73,366.57Z"/><path fill="#abbcca" d="M858.62,521.85c-1.35-8.93-.68-42.16-2.35-73.57-1.63,49.18-6.33,63.17-20.9,72.5s-39.13-.38-39.13-.38.85,6.27,1.62,15.5l.4-.41c28.14,14.18,53.45,15.94,63.08,16.74C861.34,552.23,859.32,526.44,858.62,521.85Z"/><path fill="#abbcca" d="M836.84,382.14h0s-33.91,4.39-26.74,59a27.22,27.22,0,0,1-6.05,21.4,23.37,23.37,0,0,1-14.62,8.18h0c-.13,7.11-.17,9.94-.17,9.94a139.63,139.63,0,0,0,15.82,2c4.53,3,13.76,9.3,17.6,13.86a44.42,44.42,0,0,0-11.22-17.83,5.1,5.1,0,0,0,.19-.5A101.94,101.94,0,0,0,814,435.29S809.7,390.19,836.84,382.14Z"/><path fill="#ea9d7d" d="M645.58,486.53h.86a9.54,9.54,0,0,1-.56-3.07,29.58,29.58,0,0,1,.91-7.56,30.07,30.07,0,0,1,3.78-8.8l.12-.95s-1.77-2.26-4.19-5.22c-4.57-5.62-11.49-13.77-13.24-14.08-2.67-.47-7.71.35,1.59,11.85a.34.34,0,0,1-.1.06"/><line x1="648.94" x2="648.94" y1="459.41" y2="487.13" fill="none" stroke="#2f170b" stroke-linecap="round" stroke-linejoin="round" stroke-width="6"/></g><g><rect width="16" height="293.04" x="227.49" y="541.37" fill="#396e8e"/><rect width="525.91" height="236.04" x="117.58" y="533.37" fill="#54a4cc"/><rect width="117.6" height="236.04" x="525.88" y="533.37" fill="#396e8e"/><rect width="236" height="71" x="201.18" y="609.4" fill="#e3eaf3"/><rect width="16" height="293.54" x="109.58" y="541.37" fill="#54a4cc"/><rect width="593.01" height="28.17" x="84.03" y="513.2" fill="#895237"/><rect width="16" height="293.04" x="635.49" y="541.37" fill="#396e8e"/><rect width="16" height="293.54" x="517.89" y="541.37" fill="#54a4cc"/><rect width="593.01" height="28.17" x="84.03" y="513.2" fill="#c9effb"/><rect width="184.15" height="28.17" x="492.89" y="513.2" fill="#87dbf6"/></g></g></svg>