<svg xmlns="http://www.w3.org/2000/svg" data-name="Lab testing" viewBox="0 0 1200 900"><path fill="#fff3f7" d="M291.68,735.86C267.22,717.06,159.35,629.5,148.21,502.8,132.58,325,320,214,371.43,183.56,489.3,113.74,772.65,8.43,952.3,165.74c143.88,126,132.57,357.74,43.61,490.32C849.32,874.54,485.7,885,291.68,735.86Z"/><rect width="64.89" height="28.93" x="909.01" y="353.5" fill="#fc7e85" rx="2"/><rect width="64.89" height="28.93" x="909.01" y="411.26" fill="#fc7e85" rx="2"/><rect width="64.89" height="28.93" x="941.46" y="382.43" fill="none" stroke="#fc7e85" stroke-miterlimit="10" stroke-width="2" rx="2"/><rect width="64.89" height="28.93" x="876.57" y="382.43" fill="none" stroke="#fc7e85" stroke-miterlimit="10" stroke-width="2" rx="2"/><rect width="64.89" height="28.93" x="197.23" y="496.49" fill="none" stroke="#fc7e85" stroke-miterlimit="10" stroke-width="2" rx="2"/><rect width="64.89" height="28.93" x="229.68" y="554.25" fill="none" stroke="#fc7e85" stroke-miterlimit="10" stroke-width="2" rx="2"/><rect width="64.89" height="28.93" x="243.16" y="525.42" fill="none" stroke="#fc7e85" stroke-miterlimit="10" stroke-width="2" rx="2"/><rect width="64.89" height="28.93" x="178.27" y="525.42" fill="#fc7e85" rx="2"/><rect width="64.89" height="28.93" x="574.63" y="111.06" fill="none" stroke="#fc7e85" stroke-miterlimit="10" stroke-width="2" rx="2"/><rect width="64.89" height="28.93" x="596.55" y="168.92" fill="none" stroke="#fc7e85" stroke-miterlimit="10" stroke-width="2" rx="2"/><rect width="64.89" height="28.93" x="620.56" y="139.99" fill="#fc7e85" rx="2"/><rect width="64.89" height="28.93" x="555.67" y="139.99" fill="none" stroke="#fc7e85" stroke-miterlimit="10" stroke-width="2" rx="2"/><g data-name="Doctor/Bottom"><path fill="#454851" d="M576.26 822.73c14 2 27.63-2.68 32.63-6.78S622 813.47 622 813.47l-.25 9.75 14.66-.42s.73-9.67 1.38-18.38c.33-4.35-1.09-6.78-1.65-11s-3.58-11-3.58-11c-7.89.26-28.25 1.45-32-3.07a28.75 28.75 0 01-5.69 7.84c-.76.77-1.56 1.53-2.38 2.27s-1.41 1.16-2.13 1.73c-.92.73-1.86 1.46-2.86 2.16-10 7.07-22.45 12.47-29.34 17.5C547.41 818.82 562.26 820.72 576.26 822.73zM715.82 815.4c12.94-5.72 22-16.93 24.06-23.06s9.52-10.28 9.52-10.28l4.09 6.54 12.21-8.14s-3.36-5.52-7.42-13.25c-2-3.86-4.52-5.16-7.21-8.41s-8.86-7.4-8.86-7.4c-6.55 4.41-23.18 16.23-28.73 14.36a28.29 28.29 0 01-.66 9.66c-.22 1.06-.51 2.13-.81 3.19-.28.88-.57 1.74-.88 2.6-.4 1.11-.81 2.22-1.28 3.34-4.7 11.28-12.42 22.49-15.59 30.41C689.29 827.39 702.88 821.12 715.82 815.4z"/><path fill="#25beef" d="M609.6,490.41S594,628.94,593.5,641.15s6.59,139.12,6.59,139.12,19,7.65,32.63,2.44c0,0,10.74-97.3,9.11-122l3.58-46.86s2.93,39.05,5.86,43.61,59.88,111.63,59.88,111.63,32.54-14.65,32.54-18.88c0,0-18.87-78.1-43-99.91q-.15-45.32-.32-90.63a90.8,90.8,0,0,0,5.86-43,89.46,89.46,0,0,0-7.33-26.85S629.13,500.18,609.6,490.41Z"/><path fill="#1a87c4" d="M644.27,598.68c-2.61-30-8-58.77-9.76-58.58-1.35.14,0,15.07.48,49.3.37,27.93-.19,46.68-1,73.23-1.53,51.8-3.61,60.69-5.83,67.85a139.12,139.12,0,0,1-28.1,49.79c6.4,2.89,16.77,6.2,28.37,3.64a37.83,37.83,0,0,0,4.26-1.2s10.74-97.3,9.11-122l3.46-45.35C645.16,610.76,644.88,605.75,644.27,598.68Z"/><path fill="#1a87c4" d="M719.48,719.5c-4-21.46-16.14-25.68-26.13-50.79-6-15.12-6.7-32.47-8.09-67.17-2.13-53.22,3.48-57.29-3.53-70.23-18.47-34.07-72.89-35.2-72.13-40.9,21.09,7.24,79.62.65,88.26-.45h0l.7-.09h.33a89.46,89.46,0,0,1,7.33,26.85,90.8,90.8,0,0,1-5.86,43q.17,45.32.32,90.63c24.09,21.81,43,99.91,43,99.91q-1.12,1.46-2.43,2.88c-6.54,5.06-24.4,13.38-29,15.49l-.09.05-.09,0-.24.11-.14.06-.1,0-.13.06-.05,0-.26.12C716.93,757.16,723.2,739.29,719.48,719.5Z"/><path fill="none" stroke="#fff" stroke-miterlimit="10" stroke-width="3" d="M702,497.64s-51.45,13-93.23,0"/></g><g data-name="Doctor/Head/Female"><path d="M660.85,277.52s22-9.56,30.49,9.35,21.52,79.67,43.72,83.05c0,0-12.24,7.55-24.36-7.29S690.48,334,688.23,327.19a69.39,69.39,0,0,0,13.61,34.73c12.76,17,31.15,48.82,7.61,54.38,0,0,12.23-5.28.06-20.43s-72.65-66.44-48.12-105.68C666.19,282.51,660.85,277.52,660.85,277.52Z"/><path fill="#ea9d7d" d="M644.14,274.65c12.4,2.42,20,18.21,18.26,36.53l.09,0c3.39.66,5.39,5,4.47,9.76s-4.42,8-7.81,7.38a4.43,4.43,0,0,1-1.29-.47c-6.89,13.88-20.26,21.6-31.26,19.46-13.65-2.67-18.49-19.52-14.46-40.15S630.49,272,644.14,274.65Z"/><path fill="#ea9d7d" d="M631,358.15c.63-2.21-2-7.61-3.6-10.72,10.86,1.67,23.78-6,30.51-19.56a4.43,4.43,0,0,0,1.29.47s1.05,28.21,7.17,28.56c7.15,6.13,30.51,26.9,25.75,36.53-4,8.08-25.56,3.91-57.72-2.3a16.25,16.25,0,0,1-8.39-4c-6.74-6.43-4.9-18-4-20.61C623.24,363.11,630.05,361.35,631,358.15Z"/><path fill="#d18165" d="M660.06 339.58c-.71-6-.91-11.24-.91-11.24a4.43 4.43 0 01-1.29-.47c-6.73 13.56-19.65 21.23-30.51 19.56a46.91 46.91 0 013.13 7.06c.28.07.55.14.83.19C641.1 356.59 652.76 350.68 660.06 339.58zM662.61 315.4a4.71 4.71 0 011.8 2.34 5.47 5.47 0 01.23 3.08 5.54 5.54 0 01-1.42 2.72 6.11 6.11 0 01-1.14 1 7.08 7.08 0 01-1.36.59 11.53 11.53 0 01.65-1.27c.18-.41.42-.77.56-1.17a10.28 10.28 0 00.75-2.23A13.74 13.74 0 00662.61 315.4z"/><path fill="#d18165" d="M666.32,356.9c-3.73-.21-5.57-10.78-6.45-19l-5.47,2.46-4.69,9.8s9,2,4.69,11.2c-3.83,8.29-14,27.11-28.7,25.5,2.13,1.18,5.07,2.71,8.65,4.27,23.55,10.24,55.68,13.48,60.36,4.22S676,365.13,666.32,356.9Z"/><path d="M617,292.92s6.27-9.75,8.09-7.57,5.31,8.06,17.23,7.44c0,0,8,10.4,9.64,22.6s10.56-4.19,10.56-4.19,11.4-28.41-.91-35.17-24.65-6.91-37,0S617,292.92,617,292.92Z"/><path fill="#be3e5f" d="M618.26,333.81c10,.46,11.13-7.22,11.13-7.22a26.53,26.53,0,0,1-12.42.86S619.91,330.78,618.26,333.81Z"/><path fill="#d18165" d="M621.06,305.77a19.6,19.6,0,0,1,.13,6.26,10.45,10.45,0,0,1-.93,3.18c-.27.57-.55.93-.8,1.38s-.52.84-.74,1.26a5.42,5.42,0,0,0-.8,2.36,1.12,1.12,0,0,0,.29.81,2.82,2.82,0,0,0,.95.64,23.54,23.54,0,0,0,5.83,1,12.37,12.37,0,0,1-6.34.45,3.8,3.8,0,0,1-1.68-.88,3,3,0,0,1-.94-1.92,6.41,6.41,0,0,1,.93-3.44c.26-.48.54-.94.83-1.37s.63-.89.82-1.23a11.78,11.78,0,0,0,1.06-2.6C620.22,309.8,620.61,307.8,621.06,305.77Z"/><path d="M627.31 301.67A42.34 42.34 0 01633.2 303a18.05 18.05 0 012.71 1.09c.9.42 1.72 1 2.66 1.52a6.92 6.92 0 00-2-2.52 9.08 9.08 0 00-2.89-1.55 10.59 10.59 0 00-3.2-.5A8 8 0 00627.31 301.67zM617.08 299.73a8.76 8.76 0 00-2.76-.65c-.18.49-.34 1-.5 1.5h0a17.82 17.82 0 012.91.29c1 .14 1.92.46 3 .71A6.84 6.84 0 00617.08 299.73zM614.74 313.33a1.52 1.52 0 001.79-1.21l.86-4.4a1.53 1.53 0 00-3-.58l-.85 4.4A1.52 1.52 0 00614.74 313.33zM630.15 314.27a1.53 1.53 0 001.8-1.21l.86-4.39a1.53 1.53 0 10-3-.59l-.86 4.4A1.53 1.53 0 00630.15 314.27zM642.65 288.49a63.37 63.37 0 014.43 7.58 75.93 75.93 0 013.43 8 63.81 63.81 0 013.75 16.9 49.68 49.68 0 01-8.71 32.65A50.49 50.49 0 00652 337.93a49.56 49.56 0 00.74-16.82 62 62 0 00-4.35-16.24 75.35 75.35 0 00-3.66-7.57 61.53 61.53 0 00-4.5-7z"/></g><g data-name="Doctor/Torso"><path fill="#ea9d7d" d="M504,447.84c-5.52-4.69-13.79-11.46-15.56-11.45-2.72,0-7.53,1.74,3.7,11.37l-.09.07c-.41.28-2.28,1.37-6.92,1.41-5.34,0-11.29,31.45,4.81,27l22.4-1.64c14.6,2.84,67.91,38.42,82.34,24.94,13.51-12.63,23.84-73.88,23.84-73.88l-35.58,6.21-9.83,33.82a6,6,0,0,1-7.78,4Z"/><path fill="#ea9d7d" d="M504,447.84c-5.52-4.69-13.79-11.46-15.56-11.45-2.72,0-7.53,1.74,3.7,11.37l-.09.07c-.41.28-2.28,1.37-6.92,1.41-5.34,0-11.29,31.45,4.81,27l22.4-1.64c14.6,2.84,67.91,38.42,82.34,24.94,13.51-12.63,23.84-73.88,23.84-73.88l-35.58,6.21-9.83,33.82a6,6,0,0,1-7.78,4Z"/><line x1="519.13" x2="516.35" y1="453" y2="475.01" fill="none" stroke="#2f170b" stroke-linecap="round" stroke-linejoin="round" stroke-width="6"/><path fill="none" stroke="#2f170b" stroke-miterlimit="10" stroke-width="2" d="M492,448.06s5.75,15.73,20,10"/><path fill="#25beef" d="M475.87,424.88h14a0,0,0,0,1,0,0v60a7,7,0,0,1-7,7h0a7,7,0,0,1-7-7v-60A0,0,0,0,1,475.87,424.88Z" transform="rotate(-5.13 482.632 458.12)"/><rect width="18" height="3" x="470.74" y="422.02" fill="#1a87c4" transform="rotate(-5.13 479.494 423.31)"/><path fill="#ea9d7d" d="M475.05,449.58c1.14-4.84,7.33,3.32,8.68,7.21s6.61,17.69-6.17,20.74C477.56,477.53,470.69,468.08,475.05,449.58Z"/><path fill="#1a87c4" d="M485.86,491.74a7,7,0,0,0,6.35-7.6l-4.91-54.71a27.8,27.8,0,0,0-3.1,10.25c-.47,4.47.62,6.1,2.34,14.85,2.28,11.57,3.36,17.42.88,21-2.88,4.16-7.5,3.4-9.33,7.86l.18,2A7,7,0,0,0,485.86,491.74Z"/><path fill="#e3eaf3" d="M565.38,461.62a6.35,6.35,0,0,0,7.36-4.21l23.3-70a39.07,39.07,0,0,1,13-19,27.78,27.78,0,0,1,5.07-3.22,1,1,0,0,1,1.43.94L613.59,425l-5.84,55.72c0,.45,0,.9-.08,1.35-1.37,16.22-18.43,26.26-33.58,20.3l-51.93-20.41,6-28.23Z"/><path fill="#abbcca" d="M523.63,475s44.88,13.29,60.21,0c8.58-7.44,27.36-83.58,27.36-83.58a22.32,22.32,0,0,1,3.66-5.52l-1.27,39-5.84,55.72c0,.45,0,.9-.08,1.35-1.37,16.22-18.43,26.26-33.58,20.3l-51.93-20.41Z"/><path fill="#ea9d7d" d="M759.56,559.28a23.8,23.8,0,0,1-.73-5.51c-.23-15.56-1.71-74.95-10.68-102-2.85-8.63-29.06-52.54-29.06-52.54l-37.44,7.92,33,54.79a27.41,27.41,0,0,1,3.19,7.83l20.11,85.65a8.08,8.08,0,0,1-1.49,6.81c-4.23,5.43-12.61,16.46-12.47,18.49.18,2.71,2.18,7.41,11.13-4.37,0,0,1.53,1.58,1.89,6.91s1.12,25.84,2.8,26.18,5.49,5.23,4.23-22.65c0,0,2.48-1.38,2.64,1s1.54,25.29,4.4,22.84,2-5.73,1.12-24c0,0,1.87-1.48,2.23-.6s2.41,22.52,4.22,22.4,4.32,3.64.74-27.27c0,0,1-.52,2.14,2.58s5.5,16.72,6.92,13,.63-4.12-4.81-19.93l-4.05-17.57Z"/><path fill="#d18165" d="M681.65,407.14l8.83-1.87c6.6,8.37,14.8,14.46,25.48,30.1,8.33,12.18,13.72,24.59,16.11,29.83,6.56,14.36,5.23,21.69,9.6,57.12,2.63,21.28,3.94,31.91,5.32,37.48,0,0,8.28,35.93,5.06,49.72a1.7,1.7,0,0,1-1,1.13c-2.86,2.45-4.24-20.43-4.4-22.84s-2.64-1-2.64-1c1.26,27.88-2.54,23-4.23,22.65s-2.44-20.76-2.8-26.14h0v0c-.36-5.33-1.89-6.91-1.89-6.91-9,11.78-11,7.08-11.13,4.37-.14-2,8.24-13.06,12.47-18.49a8.08,8.08,0,0,0,1.49-6.81l-20.11-85.65a27.41,27.41,0,0,0-3.19-7.83Z"/><path fill="#e3eaf3" d="M591.59,596.27a8.09,8.09,0,0,0,5.79,2.34H714.67a8.44,8.44,0,0,0,8.34-9.7L682.77,362.7l-16.67-6.32c-2.4-1.3-3.43-5.3-3.83-7.58a1.66,1.66,0,0,0-1.93-1.33l-29.89,5.34a1.66,1.66,0,0,0-1.34,1.94c.34,1.9.58,4.83-1.12,5.09l-12.44,4.73a10.87,10.87,0,0,0-8.3,11.15l.15,4.5c.53,16.18,4.31,61,.35,100.45-4.93,48.95-17.83,93.74-17.18,113.81C590.58,594.66,590.61,595.28,591.59,596.27Z"/><path fill="#e3eaf3" d="M762.57,553.37c1.42-1-3.4-57-8.16-87.86-1.67-10.84-6.77-27.38-12.72-36.58,0,0-19.53-33.64-32.4-48.48-4.6-5.31-13.14-15-26.52-17.75l-7.62,39.74,37.38,61.65c.42.63,21.93,89.72,22.56,89.28Z"/><path fill="#abbcca" d="M676.33 400.34a2.44 2.44 0 00-.93 2l-.06.39 16.35 27h0l20.84 34.37c.42.63 21.93 89.72 22.55 89.28h10l-.06-.26c-13.08-58.61-19.67-88-21.78-93.22C709.12 425.18 681.19 397.65 676.33 400.34zM628 359.84a40.8 40.8 0 009.27 1.05 57 57 0 009.31-.6 53.69 53.69 0 009.1-2.05 40.94 40.94 0 008.57-3.72c-3.12.39-6.1 1-9.11 1.44l-4.5.71c-1.5.2-3 .46-4.49.65l-9 1.25C634.1 359 631.08 359.35 628 359.84z"/><path fill="#abbcca" d="M723,588.91l-.28-1.53L694,425.93c-6.74-14-15.33-26.45-17.66-25.59-2,.74-.93,10.09-1,11.19-3,50.35-66.21,22.29-66.85,21.24.86,4.35,2.94,11.25,8.64,16.74,13.65,13.13,36.34,6.87,43.06,5l.31-.09a20.31,20.31,0,0,1,25.91,20.93c-3.23,43-26.08,72.84-26.08,72.84-19.92,26-51.89,38.51-69.8,44.12a16.86,16.86,0,0,0,0,2.15c.44,2.74,4.27,4.13,6.69,4.24,10.73.51,57.49-.11,57.49-.11h59.92A8.44,8.44,0,0,0,723,588.91Z"/></g><g><path fill="#87dbf6" d="M806.24,65.58V358.65H1057.3V65.58Zm116.46,273H820.56V82.76H922.7Zm120.29,0H940.84V82.76H1043Z"/><path fill="#a8e5f9" d="M842.59 82.76s-14.4 163.54 13 200.52 67.16 27.78 67.16 27.78V338.6H820.56V82.76zM962.87 82.76s-14.4 163.54 13 200.52S1043 311.06 1043 311.06V338.6H940.85V82.76z"/><rect width="278.64" height="3" x="792.46" y="64.08" fill="#ff0068"/><rect width="278.64" height="3" x="792.46" y="74.79" fill="#ff0068"/><rect width="278.64" height="3" x="792.46" y="85.51" fill="#ff0068"/><rect width="278.64" height="3" x="792.46" y="96.23" fill="#ff0068"/><rect width="278.64" height="3" x="792.46" y="106.95" fill="#ff0068"/><rect width="278.64" height="3" x="792.46" y="117.66" fill="#ff0068"/><rect width="278.64" height="3" x="792.46" y="128.38" fill="#ff0068"/><rect width="278.64" height="3" x="792.46" y="139.1" fill="#ff0068"/><rect width="278.64" height="3" x="792.46" y="149.82" fill="#ff0068"/><rect width="278.64" height="3" x="792.46" y="160.53" fill="#ff0068"/><rect width="278.64" height="3" x="792.46" y="171.1" fill="#ff0068"/><rect width="278.64" height="3" x="792.46" y="181.82" fill="#ff0068"/><rect width="278.64" height="3" x="792.46" y="192.54" fill="#ff0068"/><rect width="278.64" height="3" x="792.46" y="203.26" fill="#ff0068"/><rect width="278.64" height="3" x="792.46" y="213.97" fill="#ff0068"/><rect width="278.64" height="3" x="792.46" y="224.69" fill="#ff0068"/><rect width="278.64" height="3" x="792.46" y="235.41" fill="#ff0068"/><rect width="278.64" height="3" x="792.46" y="246.13" fill="#ff0068"/><rect width="278.64" height="3" x="792.46" y="256.84" fill="#ff0068"/><rect width="278.64" height="3" x="792.46" y="267.56" fill="#ff0068"/></g><g><path fill="#7bce34" d="M196.78,761.36l-1-.79c1-7.41,4.15-30,8.19-58.32,9.86-69.08,25.12-171.86,28.24-168.86,4.26,4.1,4.35,56.08-.56,117.09q-.72,8.94-1.58,18.08-.9,9.54-1.67,18.22c-2.26,5.49-4.67,11.11-7.2,16.78C204.37,741.29,196.78,761.36,196.78,761.36Z"/><path fill="#3c8f2d" d="M203,751.42s4.35-21,15-60.91,16.37-77.08,13.35-80.6C229.94,608.26,219.54,637,208.9,668c-4.76,32.63-9,63.06-11.44,80.36Z"/><path fill="#3c8f2d" d="M204.71,809l1.24-.34c1.91-7.23,7.73-29.32,14.88-57,17.49-67.56,42.95-168.3,38.92-166.73-5.51,2.15-25.6,50.08-44.55,108.29q-2.76,8.52-5.49,17.29-2.85,9.15-5.47,17.47c0,5.93,0,12,.18,18.25C205.43,787.53,204.71,809,204.71,809Z"/><path fill="#3c8f2d" d="M99,643.18a44.63,44.63,0,0,1,5.13-2.46c1.75-.74,3.54-1.37,5.35-2a73.4,73.4,0,0,1,11.15-2.59,70.84,70.84,0,0,1,23.5.23,58.84,58.84,0,0,1,11.74,3.4,54.43,54.43,0,0,1,5.6,2.71l1.37.76c.45.26.88.55,1.32.83.87.58,1.77,1.11,2.62,1.73a63.68,63.68,0,0,1,9.37,8.29l2.07,2.33c.17.2.36.4.51.59l.44.57.9,1.13,3.58,4.55c2.2,3.16,4.52,6.24,6.43,9.58l1.49,2.47c.24.42.5.83.73,1.25l.67,1.27L195.7,683c1.63,3.47,3.3,6.91,4.7,10.46l1.11,2.64,1,2.67,1,2.67.51,1.34.45,1.35c.61,1.81,1.3,3.58,2,5.37s1.32,3.59,2,5.38,1.2,3.64,1.73,5.48.87,3.72,1.21,5.6c.15,1,.26,1.9.37,2.85s.21,1.91.29,2.86c.11,1.92.22,3.84.19,5.77a56.39,56.39,0,0,1-.35,5.79,40.77,40.77,0,0,1-1,5.81l-11.88.42c-1.3-3.36-2.25-6.68-3.18-10l-.69-2.48c-.21-.83-.44-1.66-.63-2.49q-.68-2.48-1.24-5c-.41-1.66-.75-3.32-1.05-5s-.61-3.35-.88-5.05-.65-3.36-1-5-.9-3.3-1.4-4.93l-.4-1.22L188,707l-.89-2.4c-.3-.8-.61-1.6-.93-2.39l-1-2.34c-1.32-3.15-2.93-6.15-4.46-9.19l-2.53-4.42-.63-1.1c-.22-.36-.46-.71-.69-1.07L175.52,682l-1.36-2.15c-.43-.72-1-1.38-1.43-2.08l-2.9-4.16-3.13-4-.78-1-.39-.49-.39-.44-1.55-1.7c-.51-.57-1.1-1.06-1.64-1.6l-.82-.79c-.29-.26-.59-.49-.88-.74-.59-.48-1.14-1-1.75-1.46L156.67,660c-.6-.47-1.26-.86-1.88-1.3-.32-.21-.63-.43-.95-.63l-1-.59c-1.29-.83-2.66-1.54-4-2.3a78.2,78.2,0,0,0-8.66-3.88,93.64,93.64,0,0,0-19.42-4.94c-3.42-.53-6.92-.91-10.47-1.19s-7.18-.46-10.84-.53Z"/><path fill="#7bce34" d="M198.64 748.52l0-1.35c0-.85-.06-1.71-.12-2.56l-.23-2.55c-.25-3.4-.83-6.76-1.32-10.12l-1-5-.25-1.25c-.09-.42-.2-.82-.3-1.23l-.62-2.46-.61-2.47c-.18-.83-.48-1.62-.7-2.43L192 712.25l-1.71-4.76-.43-1.19-.21-.59c-.08-.2-.16-.36-.24-.53l-.93-2.11c-.3-.7-.7-1.35-1-2l-.53-1c-.19-.33-.4-.65-.6-1-.4-.64-.77-1.31-1.19-1.94l-1.31-1.87c-.42-.64-.92-1.22-1.37-1.83-.24-.3-.46-.61-.7-.91l-.27-.31c1.29 2.54 2.6 5.07 3.71 7.71l1 2.34c.32.79.63 1.59.93 2.39L188 707l.45 1.21.4 1.22c.5 1.63 1 3.26 1.4 4.93s.69 3.36 1 5 .54 3.38.88 5.05.64 3.34 1.05 5 .79 3.31 1.24 5c.19.83.42 1.66.63 2.49l.69 2.48C196.63 742.43 197.51 745.46 198.64 748.52zM148.84 655.21c1.35.76 2.72 1.47 4 2.3l1 .59c.32.2.63.42.95.63.62.44 1.28.83 1.88 1.3l1.83 1.37.07.05a70.43 70.43 0 0120.88 7.41 59.17 59.17 0 0110.06 6.95 53.58 53.58 0 014.45 4.34l.6.65L193 677.87l-.67-1.27c-.23-.42-.49-.83-.73-1.25l-1.49-2.47c-1.91-3.34-4.23-6.42-6.43-9.58l-3.58-4.55-.9-1.13-.44-.57c-.15-.19-.34-.39-.51-.59l-2.07-2.33a63.68 63.68 0 00-9.37-8.29c-.85-.62-1.75-1.15-2.62-1.73-.44-.28-.87-.57-1.32-.83l-1.37-.76a54.43 54.43 0 00-5.6-2.71 58.84 58.84 0 00-11.74-3.4 70.84 70.84 0 00-23.5-.23 73.4 73.4 0 00-11.15 2.59c-1.81.58-3.6 1.21-5.35 2A44.63 44.63 0 0099 643.18l.41 1.49c3.66.07 7.29.23 10.84.53s7 .66 10.47 1.19a93.64 93.64 0 0119.42 4.94A78.2 78.2 0 01148.84 655.21zM314.77 630.24a44.42 44.42 0 00-5.44-1.7c-1.83-.47-3.69-.84-5.56-1.15a74.77 74.77 0 00-11.42-.95 70.9 70.9 0 00-23.22 3.63A59 59 0 00258 635.13a55.44 55.44 0 00-5.15 3.49l-1.24 1c-.41.33-.79.68-1.19 1-.78.69-1.59 1.35-2.34 2.08a64.09 64.09 0 00-8.08 9.56l-1.71 2.61c-.14.22-.29.44-.41.65l-.36.63-.72 1.25-2.89 5c-1.72 3.44-3.57 6.83-5 10.41l-1.11 2.67c-.18.44-.37.88-.54 1.33l-.49 1.35-1.92 5.43c-1.11 3.66-2.26 7.31-3.14 11l-.72 2.77-.61 2.79-.62 2.79-.31 1.39-.25 1.41c-.34 1.87-.77 3.73-1.16 5.59s-.79 3.74-1.19 5.62-.67 3.76-.92 5.66-.33 3.81-.39 5.72c0 1 0 1.92.05 2.88s.06 1.91.12 2.87c.17 1.92.34 3.82.65 5.73a55.64 55.64 0 001.19 5.68 39.87 39.87 0 001.87 5.59l11.82-1.3c.8-3.51 1.26-6.93 1.7-10.36l.32-2.56c.09-.85.2-1.7.26-2.55.21-1.7.38-3.39.51-5.09s.27-3.39.32-5.09.12-3.41.14-5.13.16-3.42.27-5.13.41-3.4.67-5.09l.22-1.26.27-1.26.54-2.5c.18-.84.36-1.67.56-2.5l.68-2.47c.85-3.31 2-6.51 3.09-9.73l1.86-4.74.46-1.18c.17-.39.35-.78.53-1.16l1-2.32 1-2.32c.32-.78.76-1.5 1.12-2.27l2.26-4.53 2.52-4.38.63-1.09.32-.55c.11-.18.22-.32.33-.48l1.28-1.91c.42-.64.93-1.21 1.39-1.82l.7-.91c.24-.29.51-.57.76-.85.51-.56 1-1.16 1.52-1.71l1.61-1.61c.53-.55 1.12-1 1.68-1.56.28-.25.56-.52.85-.77s.6-.47.89-.72c1.15-1 2.41-1.91 3.63-2.86a79 79 0 018-5.09 94.23 94.23 0 0118.5-7.69c3.31-1 6.71-1.91 10.19-2.7s7-1.49 10.65-2.09z"/><path fill="#3c8f2d" d="M261.86,653.69l.13-.11a67,67,0,0,0-9.78,3.77,59.43,59.43,0,0,0-10.42,6.38,56.74,56.74,0,0,0-4.69,4.09L236,668.91c-.36.38-.71.77-1.06,1.16-.69.78-1.42,1.53-2.07,2.35A64.35,64.35,0,0,0,226,682.89l-1.38,2.8c-.11.24-.24.48-.33.7l-.28.67-.56,1.33-.11.25c-.58,2-1.14,4-1.61,6l-.72,2.77-.61,2.79-.62,2.79-.31,1.39-.25,1.41c-.34,1.87-.77,3.73-1.16,5.59s-.79,3.74-1.19,5.62-.67,3.76-.92,5.66-.33,3.81-.39,5.72c0,1,0,1.92.05,2.88s.06,1.91.12,2.87c.17,1.92.34,3.82.65,5.73a55.64,55.64,0,0,0,1.19,5.68,39.87,39.87,0,0,0,1.87,5.59l9.26-1a1.64,1.64,0,0,0,0-.22c-.13-1.7-.26-3.41-.35-5.13s0-3.42,0-5.13l.07-1.28.11-1.28.23-2.55c.08-.85.16-1.7.26-2.55l.37-2.53c.44-3.39,1.2-6.71,1.88-10l1.27-4.93.31-1.23c.12-.41.26-.81.38-1.21l.76-2.43.73-2.42c.23-.82.57-1.59.84-2.4l1.69-4.77.37-.86.08-.31c.85-3.31,2-6.51,3.09-9.73l1.86-4.74.46-1.18c.17-.39.35-.78.53-1.16l1-2.32,1-2.32c.32-.78.76-1.5,1.12-2.27l2.26-4.53,2.52-4.38.63-1.09.32-.55c.11-.18.22-.32.33-.48l1.28-1.91c.42-.64.93-1.21,1.39-1.82l.7-.91c.24-.29.51-.57.76-.85.51-.56,1-1.16,1.52-1.71l1.61-1.61C260.71,654.7,261.3,654.22,261.86,653.69Z"/><path fill="#7bce34" d="M229.73,753.49l-1.27-.15c-3-6.83-12.33-27.69-23.84-53.84-28.1-63.87-69.42-159.21-65.19-158.31,5.79,1.23,33.31,45.32,61.36,99.73q4.11,8,8.21,16.19,4.26,8.57,8.2,16.36c1,5.84,1.9,11.89,2.75,18C225.58,732.43,229.73,753.49,229.73,753.49Z"/><path fill="#3c8f2d" d="M229.74,741.78s-7.41-20.14-19.4-59.66-26.79-74.1-31.22-75.5c-2.07-.66,4.27,29.23,11.6,61.16,13.19,30.23,25.63,58.33,32.72,74.29Z"/><path fill="#7bce34" d="M229.73,753.49l-1.27-.15-19.78-2.23s-2-23.73-4.06-51.61c-1.47-19.78-3-41.66-3.83-58.58-.87-17.34-1.06-29.49.18-28.87,3.53,1.76,10.7,28.36,16.23,61.42,1,5.84,1.9,11.89,2.75,18C225.58,732.43,229.73,753.49,229.73,753.49Z"/><path fill="#7bce34" d="M344.56,733.33c-5.92-4.91-11.74-9.4-17.08-14-2.66-2.31-5.24-4.6-7.56-7a57.84,57.84,0,0,1-6.15-7.12,38.73,38.73,0,0,1-2.27-3.48q-.22-.43-.48-.84c-.17-.28-.28-.56-.42-.83l-1.3-2.55a46.79,46.79,0,0,0-3.57-5.55,49.28,49.28,0,0,0-4.37-5,52.21,52.21,0,0,0-10.56-8,50.05,50.05,0,0,0-12.35-5.15,37.4,37.4,0,0,0-6.85-1.14,30.94,30.94,0,0,0-7.23.27,27.14,27.14,0,0,0-7.29,2.18,32.7,32.7,0,0,0-6.25,3.76,40.89,40.89,0,0,0-5.09,4.58,50.5,50.5,0,0,0-4.18,5.06,64.12,64.12,0,0,0-6.28,10.92,91,91,0,0,0-6.45,23.16c-.3,2-.6,3.88-.85,5.82l-.39,2.91c-.12,1-.2,1.93-.34,2.9-.47,3.86-.9,7.71-1.66,11.56l18.52.64A49.2,49.2,0,0,1,244,736a81.46,81.46,0,0,1,1.52-10.27,102.07,102.07,0,0,1,2.61-9.87c1-3.2,2.11-6.35,3.36-9.35.62-1.5,1.25-3,2-4.4s1.42-2.82,2.21-4.14a39.44,39.44,0,0,1,2.48-3.76,25.64,25.64,0,0,1,2.76-3.19,17.44,17.44,0,0,1,3-2.33,10.79,10.79,0,0,1,3.17-1.3,15,15,0,0,1,3.78-.35,18.74,18.74,0,0,1,4.06.61,21.38,21.38,0,0,1,7.71,4,30.58,30.58,0,0,1,6,6.55c.85,1.23,1.62,2.5,2.36,3.79s1.4,2.63,2.06,4l.47,1,.12.25.15.31.42.82c.28.54.56,1.1.86,1.62s.62,1,.94,1.53a36.26,36.26,0,0,0,4.33,5.38,50.9,50.9,0,0,0,10,7.94,60.66,60.66,0,0,0,5.33,3c1.79.89,3.62,1.69,5.46,2.41a74.5,74.5,0,0,0,11.24,3.42c1.91.41,3.82.76,5.76,1A45.71,45.71,0,0,0,344,735Z"/><path fill="#3c8f2d" d="M227.59,731.4l.39-2.91c.25-1.94.55-3.87.85-5.82a91,91,0,0,1,6.45-23.16,64.12,64.12,0,0,1,6.28-10.92,50.5,50.5,0,0,1,4.18-5.06,40.89,40.89,0,0,1,5.09-4.58,34.86,34.86,0,0,1,3.35-2.24c22.59,1.27,30.07,12.16,32.53,19a27.87,27.87,0,0,0-4.17-4.1,21.38,21.38,0,0,0-7.71-4,18.74,18.74,0,0,0-4.06-.61,15,15,0,0,0-3.78.35,10.79,10.79,0,0,0-3.17,1.3,17.44,17.44,0,0,0-3,2.33,25.64,25.64,0,0,0-2.76,3.19,39.44,39.44,0,0,0-2.48,3.76c-.79,1.32-1.52,2.71-2.21,4.14s-1.35,2.9-2,4.4c-1.25,3-2.33,6.15-3.36,9.35a102.07,102.07,0,0,0-2.61,9.87A81.46,81.46,0,0,0,244,736a49.2,49.2,0,0,0,.16,10.5l-18.52-.64c.76-3.85,1.19-7.7,1.66-11.56C227.39,733.33,227.47,732.36,227.59,731.4Z"/><path fill="#7bce34" d="M82.17,733.33c5.92-4.91,11.73-9.4,17.08-14,2.66-2.31,5.24-4.6,7.56-7a59.61,59.61,0,0,0,6.15-7.12,41,41,0,0,0,2.27-3.48q.22-.43.48-.84c.16-.28.28-.56.42-.83l1.3-2.55A45.56,45.56,0,0,1,121,692a48.07,48.07,0,0,1,4.37-5,52.21,52.21,0,0,1,10.56-8,49.89,49.89,0,0,1,12.35-5.15,37.43,37.43,0,0,1,6.84-1.14,31,31,0,0,1,7.24.27,27.25,27.25,0,0,1,7.29,2.18A33,33,0,0,1,175.9,679a40.79,40.79,0,0,1,5.08,4.58,49.29,49.29,0,0,1,4.19,5.06,64.12,64.12,0,0,1,6.28,10.92,91,91,0,0,1,6.45,23.16c.3,2,.6,3.88.85,5.82l.39,2.91c.11,1,.2,1.93.34,2.9.46,3.86.9,7.71,1.66,11.56l-18.52.64a49.2,49.2,0,0,0,.16-10.5,81.46,81.46,0,0,0-1.52-10.27c-.72-3.37-1.6-6.66-2.61-9.87s-2.11-6.35-3.36-9.35c-.62-1.5-1.25-3-2-4.4s-1.42-2.82-2.21-4.14a41.45,41.45,0,0,0-2.48-3.76,25.69,25.69,0,0,0-2.77-3.19,17,17,0,0,0-3-2.33,10.9,10.9,0,0,0-3.17-1.3A15,15,0,0,0,156,687a18.65,18.65,0,0,0-4.06.61,21.38,21.38,0,0,0-7.71,4,30.58,30.58,0,0,0-6,6.55c-.85,1.23-1.62,2.5-2.36,3.79s-1.4,2.63-2.07,4l-.47,1-.11.25c0,.09-.07.15-.15.31l-.42.82c-.29.54-.56,1.1-.86,1.62s-.62,1-1,1.53a36.21,36.21,0,0,1-4.32,5.38,50.9,50.9,0,0,1-10,7.94,60.66,60.66,0,0,1-5.33,3q-2.7,1.34-5.46,2.41a74.5,74.5,0,0,1-11.24,3.42c-1.91.41-3.83.76-5.76,1a45.87,45.87,0,0,1-5.89.43Z"/><path fill="#3c8f2d" d="M199.14,731.4l-.39-2.91c-.25-1.94-.55-3.87-.85-5.82a91,91,0,0,0-6.45-23.16,64.12,64.12,0,0,0-6.28-10.92,49.29,49.29,0,0,0-4.19-5.06A40.79,40.79,0,0,0,175.9,679a34.86,34.86,0,0,0-3.35-2.24C150,678,142.48,688.87,140,695.71a28.41,28.41,0,0,1,4.18-4.1,21.38,21.38,0,0,1,7.71-4A18.65,18.65,0,0,1,156,687a15,15,0,0,1,3.78.35,10.9,10.9,0,0,1,3.17,1.3,17,17,0,0,1,3,2.33,25.69,25.69,0,0,1,2.77,3.19,41.45,41.45,0,0,1,2.48,3.76c.79,1.32,1.52,2.71,2.21,4.14s1.35,2.9,2,4.4c1.25,3,2.33,6.15,3.36,9.35s1.89,6.5,2.61,9.87A81.46,81.46,0,0,1,182.78,736a49.2,49.2,0,0,1-.16,10.5l18.52-.64c-.76-3.85-1.2-7.7-1.66-11.56C199.34,733.33,199.25,732.36,199.14,731.4Z"/><path fill="#abbcca" d="M245.74,824.65h-56a14.6,14.6,0,0,1-14.43-12.43l-9.87-65.75c-.69-4.56,32.83-1,53.35-1.15,19.33-.2,50.93-2,50.59.28l-9.19,66.62A14.61,14.61,0,0,1,245.74,824.65Z"/><path fill="#91a6b5" d="M217.38,745.33c-20.52.21-52.65-3.42-52,1.14l9.87,65.75a14.6,14.6,0,0,0,14.43,12.43h22.16a35.38,35.38,0,0,1-9.13-23.43c0-1.79.22-13.32,8.6-22.53,5-5.5,13.12-8.31,29.36-13.94,7.8-2.7,14-4.07,20.75-9.78a47.91,47.91,0,0,0,7.67-7.73l.23-1.64C269.7,743.32,236.72,745.14,217.38,745.33Z"/></g><g><rect width="168.55" height="156.63" x="943.36" y="666.65" fill="#c9effb"/><rect width="180.38" height="8.85" x="937.45" y="657.8" fill="#c9effb"/><rect width="168.55" height="8.25" x="943.36" y="666.65" fill="#80cbe8"/><path fill="#80cbe8" d="M983 616.06h36.08a0 0 0 010 0v23.7a18 18 0 01-18 18h0a18 18 0 01-18-18v-23.7A0 0 0 01983 616.06zM1072.16 616.06h36.08a0 0 0 010 0v23.7a18 18 0 01-18 18h0a18 18 0 01-18-18v-23.7A0 0 0 011072.16 616.06z"/><line x1="983.02" x2="1019.09" y1="630.97" y2="630.97" fill="none" stroke="#fdfcf8" stroke-miterlimit="10" stroke-width="3"/><line x1="1072.16" x2="1108.24" y1="630.97" y2="630.97" fill="none" stroke="#fdfcf8" stroke-miterlimit="10" stroke-width="3"/><line x1="943.36" x2="1111.92" y1="709.98" y2="709.98" fill="none" stroke="#fdfcf8" stroke-miterlimit="10" stroke-width="3"/><line x1="943.36" x2="1111.92" y1="748.74" y2="748.74" fill="none" stroke="#fdfcf8" stroke-miterlimit="10" stroke-width="3"/><line x1="943.36" x2="1111.92" y1="787.5" y2="787.5" fill="none" stroke="#fdfcf8" stroke-miterlimit="10" stroke-width="3"/><circle cx="1027.64" cy="689.4" r="6.46" fill="#80cbe8"/><circle cx="1027.64" cy="729.36" r="6.46" fill="#80cbe8"/><circle cx="1027.64" cy="769.31" r="6.46" fill="#80cbe8"/><circle cx="1027.64" cy="809.26" r="6.46" fill="#80cbe8"/></g><g><path fill="#a2aee6" d="M343.51,303h-113a3.07,3.07,0,0,1-3.07-3.07V177.6a3.08,3.08,0,0,1,3.07-3.07H364.44a3.08,3.08,0,0,1,3.07,3.07V279.87Z"/><rect width="19.88" height="19.88" x="300.59" y="202.76" fill="#c0d6f2"/><rect width="19.88" height="19.88" x="328.17" y="202.76" fill="#c0d6f2"/><rect width="19.88" height="19.88" x="300.59" y="227.3" fill="#c0d6f2"/><rect width="19.88" height="19.88" x="328.17" y="227.3" fill="#c0d6f2"/><rect width="19.88" height="19.88" x="300.59" y="251.84" fill="#c0d6f2"/><rect width="19.88" height="19.88" x="328.17" y="251.84" fill="#c0d6f2"/><rect width="19.88" height="19.88" x="245.21" y="251.84" fill="#c0d6f2"/><rect width="19.88" height="19.88" x="245.21" y="276.36" fill="#c0d6f2"/><rect width="19.88" height="19.88" x="245.21" y="227.3" fill="#c0d6f2"/><rect width="19.88" height="19.88" x="272.22" y="251.84" fill="#c0d6f2"/><rect width="19.88" height="19.88" x="272.22" y="227.3" fill="#c0d6f2"/><path fill="#a2aee6" d="M364.44,303a3.07,3.07,0,0,0,3.07-3.07v-20l-24,23.09Z"/><path fill="#ea8826" d="M251.48 188.92a2.3 2.3 0 01-2.3-2.3V164.53a2.3 2.3 0 114.6 0v22.09A2.3 2.3 0 01251.48 188.92zM236.14 188.92a2.3 2.3 0 01-2.3-2.3V164.53a2.3 2.3 0 114.6 0v22.09A2.3 2.3 0 01236.14 188.92zM266.82 188.92a2.3 2.3 0 01-2.3-2.3V164.53a2.3 2.3 0 014.6 0v22.09A2.3 2.3 0 01266.82 188.92zM282.16 188.92a2.29 2.29 0 01-2.3-2.3V164.53a2.3 2.3 0 114.6 0v22.09A2.3 2.3 0 01282.16 188.92zM297.49 188.92a2.3 2.3 0 01-2.3-2.3V164.53a2.31 2.31 0 014.61 0v22.09A2.3 2.3 0 01297.49 188.92zM312.83 188.92a2.3 2.3 0 01-2.3-2.3V164.53a2.3 2.3 0 014.6 0v22.09A2.3 2.3 0 01312.83 188.92zM328.17 188.92a2.3 2.3 0 01-2.3-2.3V164.53a2.3 2.3 0 014.6 0v22.09A2.3 2.3 0 01328.17 188.92zM343.51 188.92a2.3 2.3 0 01-2.3-2.3V164.53a2.3 2.3 0 114.6 0v22.09A2.3 2.3 0 01343.51 188.92zM358.85 188.92a2.3 2.3 0 01-2.3-2.3V164.53a2.3 2.3 0 114.6 0v22.09A2.3 2.3 0 01358.85 188.92z"/><polygon fill="#c0d6f2" points="367.4 279.76 343.41 279.98 343.62 303.07 367.4 279.76"/><path fill="#af2f2f" d="M276.38,252.06a87.69,87.69,0,0,1,6.33,9.39c1,1.63,1.89,3.26,2.77,4.93s1.72,3.37,2.45,5.12c-1.19-1.48-2.27-3-3.32-4.6s-2-3.18-3-4.79A87.7,87.7,0,0,1,276.38,252.06Z"/><path fill="#af2f2f" d="M287.93,252.06a87.7,87.7,0,0,1-5.22,10.05c-1,1.61-2,3.22-3,4.79s-2.13,3.12-3.32,4.6c.73-1.75,1.57-3.45,2.45-5.12s1.82-3.3,2.77-4.93A89.2,89.2,0,0,1,287.93,252.06Z"/></g><g data-name="Test/Tube"><path fill="#54a4cc" d="M767.12,414.15h14.25a0,0,0,0,1,0,0v61.06a7.12,7.12,0,0,1-7.12,7.12h0a7.12,7.12,0,0,1-7.12-7.12V414.15A0,0,0,0,1,767.12,414.15Z"/><rect width="18.32" height="7.05" x="765.08" y="407.1" fill="#396e8e"/><path fill="#396e8e" d="M774.24,482.34a7.13,7.13,0,0,0,7.13-7.12V419.31a28.26,28.26,0,0,0-4.07,10.11c-.89,4.49.06,6.24,1,15.27,1.26,11.93,1.83,18-1,21.37-3.31,4-7.91,2.77-10.18,7.12v2A7.12,7.12,0,0,0,774.24,482.34Z"/><path fill="#ef3e3b" d="M793.84,414.15h14.25a0,0,0,0,1,0,0v61.06a7.12,7.12,0,0,1-7.12,7.12h0a7.12,7.12,0,0,1-7.12-7.12V414.15A0,0,0,0,1,793.84,414.15Z"/><rect width="18.32" height="7.05" x="791.8" y="407.1" fill="#c82833"/><path fill="#c82833" d="M801,482.34a7.12,7.12,0,0,0,7.12-7.12V419.31A28.63,28.63,0,0,0,804,429.42c-.89,4.49.07,6.24,1,15.27,1.26,11.93,1.83,18-1,21.37-3.3,4-7.91,2.77-10.17,7.12v2A7.12,7.12,0,0,0,801,482.34Z"/><path fill="#54a4cc" d="M820.55,414.15H834.8a0,0,0,0,1,0,0v61.06a7.12,7.12,0,0,1-7.12,7.12h0a7.12,7.12,0,0,1-7.12-7.12V414.15A0,0,0,0,1,820.55,414.15Z"/><rect width="18.32" height="7.05" x="818.52" y="407.1" fill="#396e8e"/><path fill="#396e8e" d="M827.68,482.34a7.12,7.12,0,0,0,7.12-7.12V419.31a28.26,28.26,0,0,0-4.07,10.11c-.89,4.49.07,6.24,1,15.27,1.25,11.93,1.82,18-1,21.37-3.3,4-7.91,2.77-10.18,7.12v2A7.13,7.13,0,0,0,827.68,482.34Z"/><path fill="#ef3e3b" d="M847.27,414.15h14.25a0,0,0,0,1,0,0v61.06a7.12,7.12,0,0,1-7.12,7.12h0a7.12,7.12,0,0,1-7.12-7.12V414.15A0,0,0,0,1,847.27,414.15Z"/><rect width="18.32" height="7.05" x="845.23" y="407.1" fill="#c82833"/><path fill="#c82833" d="M854.39,482.34a7.13,7.13,0,0,0,7.13-7.12V419.31a28.46,28.46,0,0,0-4.08,10.11c-.88,4.49.07,6.24,1,15.27,1.26,11.93,1.83,18-1,21.37-3.3,4-7.9,2.77-10.17,7.12v2A7.12,7.12,0,0,0,854.39,482.34Z"/><path fill="#454851" d="M873.71,425.21v27.53H754.93V425.21h-9v76.07H882.71V425.21ZM754.93,492.28V461.74H873.71v30.54Z"/></g><g><rect width="63.36" height="13.29" x="383.05" y="447.8" fill="#54a4cc"/><path fill="#54a4cc" d="M376,463.05a50,50,0,0,1,1.22-100h1L385.76,374c-24.68,2.28-44.33,19.31-44.33,39.07a36,36,0,0,0,35,35.81Z"/><rect width="110.03" height="13.97" x="338.08" y="487.31" fill="#54a4cc"/><polygon fill="#e3eaf3" points="410.64 487.31 368.06 487.31 368.06 447.8 383.05 447.8 410.64 487.31"/><rect width="47.01" height="11.24" x="407.41" y="421.56" fill="#e3eaf3"/><rect width="60.64" height="6.13" x="400.59" y="415.43" fill="#54a4cc"/><rect width="23.51" height="14.99" x="419.16" y="432.81" fill="#54a4cc"/><rect width="13.19" height="5.49" x="421.04" y="395.4" fill="#54a4cc" transform="rotate(-45.95 427.618 398.133)"/><polygon fill="#54a4cc" points="366.98 331.01 358.54 339.75 352 329.48 356.5 324.82 366.98 331.01"/><rect width="23.51" height="91.64" x="381.9" y="319.45" fill="#e3eaf3" rx="5.68" transform="rotate(-45.95 393.624 365.258)"/><circle cx="379.39" cy="351.47" r="7.93" fill="#54a4cc"/><circle cx="413.36" cy="393.51" r="2.31" fill="#54a4cc"/><circle cx="379.39" cy="351.47" r="4.47" fill="#e3eaf3"/></g><g><rect width="16" height="293.04" x="447.27" y="529.47" fill="#a04833"/><rect width="525.91" height="236.04" x="337.36" y="521.47" fill="#cc7829"/><rect width="117.6" height="236.04" x="745.66" y="521.47" fill="#a04833"/><rect width="236" height="71" x="420.96" y="597.5" fill="#e3eaf3"/><rect width="16" height="293.54" x="329.36" y="529.47" fill="#cc7829"/><rect width="593.01" height="28.17" x="303.81" y="501.3" fill="#895237"/><rect width="593.01" height="28.17" x="303.81" y="501.3" fill="#a04833"/><rect width="184.15" height="28.17" x="712.66" y="501.3" fill="#843a2c"/><rect width="16" height="293.04" x="855.27" y="529.47" fill="#a04833"/><rect width="16" height="293.54" x="737.66" y="529.47" fill="#cc7829"/></g></svg>