<!--?xml version="1.0" encoding="utf-8"?-->
<!-- Generator: Adobe Illustrator 26.5.0, SVG Export Plug-In . SVG Version: 6.00 Build 0)  -->
<svg version="1.1" id="Layer_1" xmlns="http://www.w3.org/2000/svg" xmlns:xlink="http://www.w3.org/1999/xlink" x="0px" y="0px" viewBox="0 0 510.3 652.9" style="" xml:space="preserve" class="">
<style type="text/css">
	.st0{fill:none;stroke:#29304C;stroke-width:20;stroke-miterlimit:10;}
	.st1{fill:none;stroke:#29304C;stroke-width:16;stroke-miterlimit:10;}
	.st2{fill:#161B2B;}
	.st3{font-family:'FranklinGothic-Demi';}
	.st4{font-size:16.5975px;}
	.st5{fill:#F8C208;stroke:#29304C;stroke-miterlimit:10;}
	.st6{fill:#FF2132;stroke:#29304C;stroke-miterlimit:10;}
	.st7{fill:#2E85D9;stroke:#29304C;stroke-miterlimit:10;}
	.st8{fill:#C7F464;stroke:#29304C;stroke-miterlimit:10;}
	.st9{fill:#CE5AFF;stroke:#29304C;stroke-miterlimit:10;}
	.st10{fill:#F0F1F2;stroke:#161B2B;stroke-miterlimit:10;}
	.st11{fill:#C1C1C1;}
	.st12{font-family:'ObjektivMk1-BoldItalic';}
	.st13{font-size:11.065px;}
</style>
<g id="main_map">
	<path class="st0 wlmNixpQ_0" d="M14.7,0L14,652.9"></path>
	<path class="st1 wlmNixpQ_1" d="M20.8,96.5L68.4,73.3L382.6,76.8"></path>
	<path class="st1 wlmNixpQ_2" d="M76.5,73.1L70.9,49.6"></path>
	<path class="st1 wlmNixpQ_3" d="M134.2,118L130.7,72"></path>
	<path class="st1 wlmNixpQ_4" d="M193,146.1L193.4,70.1"></path>
	<path class="st1 wlmNixpQ_5" d="M15.5,356.3L90.5,375.4L187.9,388.5L258.3,392.9L382.6,392.8"></path>
	<path class="st1 wlmNixpQ_6" d="M78.8,444.2L78.8,372.4"></path>
	<path class="st1 wlmNixpQ_7" d="M128.4,444.2L128.4,380.5"></path>
	<path class="st1 wlmNixpQ_8" d="M167.3,448L170.2,386.2"></path>
	<path class="st1 wlmNixpQ_9" d="M221.8,444.2L221.8,390.1"></path>
	<path class="st1 wlmNixpQ_10" d="M267.2,420.9L267.2,392.9"></path>
	<path class="st1 wlmNixpQ_11" d="M306.1,417.1L306.1,392.9"></path>
	<path class="st1 wlmNixpQ_12" d="M14.9,624.8L382,625.1"></path>
	<path class="st1 wlmNixpQ_13" d="M15.8,509.9L83.3,509.9L95.7,515.7L95.7,624.8"></path>
	<path class="st1 wlmNixpQ_14" d="M12.3,220.5L382.6,219.4"></path>
	<path class="st1 wlmNixpQ_15" d="M99.2,305.5L99,221.4"></path>
	<path class="st1 wlmNixpQ_16" d="M220.4,286.7L176.3,219.2"></path>
	<path class="st1 wlmNixpQ_17" d="M162.8,624.8"></path>
	<path class="st1 wlmNixpQ_18" d="M95.7,515.7L382,515.7"></path>
	<path class="st1 wlmNixpQ_19" d="M226.9,577.2L169.9,577.2L169.6,515.7L221.2,515.7"></path>
	<path class="st1 wlmNixpQ_20" d="M314.3,276L314,221.6"></path>
	<path class="st1 wlmNixpQ_21" d="M221.8,304.3L220.4,285.2"></path>
</g>
<g id="main_labels">
	<text transform="matrix(1 0 0 1 393.8014 207.2774)" class="st2 st3 st4">DRUG </text>
	<text transform="matrix(1 0 0 1 393.8014 227.1949)" class="st2 st3 st4">IDENTIFICATION</text>
	<text transform="matrix(1 0 0 1 394.1559 397.5128)" class="st2 st3 st4">VALIDATION</text>
	<text transform="matrix(1 0 0 1 396.6256 521.8091)" class="st2 st3 st4">CLINICAL</text>
	<text transform="matrix(1 0 0 1 393.8873 630.6158)" class="st2 st3 st4">OUTCOME</text>
	<text transform="matrix(1 0 0 1 395.6373 82.2838)" class="st2 st3 st4">PREP</text>
</g>
<g id="main_stops">
	<path class="st5 wlmNixpQ_22" d="M3,97.1A13.2,13.2 0,1,1 29.4,97.1A13.2,13.2 0,1,1 3,97.1"></path>
	<path class="st6 wlmNixpQ_23" d="M2.4000000000000004,219.4A13.2,13.2 0,1,1 28.799999999999997,219.4A13.2,13.2 0,1,1 2.4000000000000004,219.4"></path>
	
		<path transform="matrix(3.327795e-02 -0.9994 0.9994 3.327795e-02 -340.5889 358.4879)" class="st7 wlmNixpQ_24" d="M1.8000000000000007,355.3A13.2,13.2 0,1,1 28.2,355.3A13.2,13.2 0,1,1 1.8000000000000007,355.3"></path>
	<path class="st8 wlmNixpQ_25" d="M2.4000000000000004,509.6A13.2,13.2 0,1,1 28.799999999999997,509.6A13.2,13.2 0,1,1 2.4000000000000004,509.6"></path>
	<path class="st9 wlmNixpQ_26" d="M0.5,625.1A13.2,13.2 0,1,1 26.9,625.1A13.2,13.2 0,1,1 0.5,625.1"></path>
</g>
<g id="Layer_5">
	<path class="st10 wlmNixpQ_27" d="M122.89999999999999,74.4A7.7,7.7 0,1,1 138.29999999999998,74.4A7.7,7.7 0,1,1 122.89999999999999,74.4"></path>
	<path class="st10 wlmNixpQ_28" d="M185.60000000000002,74.4A7.7,7.7 0,1,1 201,74.4A7.7,7.7 0,1,1 185.60000000000002,74.4"></path>
	<path class="st10 wlmNixpQ_29" d="M68.8,71.9A7.7,7.7 0,1,1 84.2,71.9A7.7,7.7 0,1,1 68.8,71.9"></path>
	<path class="st10 wlmNixpQ_30" d="M91.5,221.3A7.7,7.7 0,1,1 106.9,221.3A7.7,7.7 0,1,1 91.5,221.3"></path>
	<path class="st10 wlmNixpQ_31" d="M120.39999999999999,382.3A7.7,7.7 0,1,1 135.79999999999998,382.3A7.7,7.7 0,1,1 120.39999999999999,382.3"></path>
	<path class="st10 wlmNixpQ_32" d="M71.2,374.3A7.7,7.7 0,1,1 86.60000000000001,374.3A7.7,7.7 0,1,1 71.2,374.3"></path>
	<path class="st10 wlmNixpQ_33" d="M162.20000000000002,515.7A7.7,7.7 0,1,1 177.6,515.7A7.7,7.7 0,1,1 162.20000000000002,515.7"></path>
	<path class="st10 wlmNixpQ_34" d="M162.20000000000002,577.2A7.7,7.7 0,1,1 177.6,577.2A7.7,7.7 0,1,1 162.20000000000002,577.2"></path>
	<path class="st10 wlmNixpQ_35" d="M87.8,625.1A7.7,7.7 0,1,1 103.2,625.1A7.7,7.7 0,1,1 87.8,625.1"></path>
	<path class="st10 wlmNixpQ_36" d="M87.8,518.2A7.7,7.7 0,1,1 103.2,518.2A7.7,7.7 0,1,1 87.8,518.2"></path>
	<path class="st10 wlmNixpQ_37" d="M167.8,221.3A7.7,7.7 0,1,1 183.2,221.3A7.7,7.7 0,1,1 167.8,221.3"></path>
	<path class="st10 wlmNixpQ_38" d="M162.8,386.1A7.7,7.7 0,1,1 178.2,386.1A7.7,7.7 0,1,1 162.8,386.1"></path>
	<path class="st10 wlmNixpQ_39" d="M213.8,392.8A7.7,7.7 0,1,1 229.2,392.8A7.7,7.7 0,1,1 213.8,392.8"></path>
	<path class="st10 wlmNixpQ_40" d="M259.3,394A7.7,7.7 0,1,1 274.7,394A7.7,7.7 0,1,1 259.3,394"></path>
	<path class="st10 wlmNixpQ_41" d="M298.7,394A7.7,7.7 0,1,1 314.09999999999997,394A7.7,7.7 0,1,1 298.7,394"></path>
	<path class="st10 wlmNixpQ_42" d="M306.6,219.4A7.7,7.7 0,1,1 322,219.4A7.7,7.7 0,1,1 306.6,219.4"></path>
	<text transform="matrix(1 0 0 1 50.0904 40.1456)" class="st11 st12 st13">Funding</text>
	<text transform="matrix(1 0 0 1 106.4342 134.774)" class="st11 st12 st13">Registries</text>
	<text transform="matrix(1 0 0 1 169.502 160.1006)" class="st11 st12 st13">Biobank</text>
	<text transform="matrix(1 0 0 1 203.8893 321.0347)" class="st11 st12 st13">Drug </text>
	<text transform="matrix(1 0 0 1 203.8893 334.3126)" class="st11 st12 st13">screens</text>
	<text transform="matrix(1 0 0 1 58.2643 317.3463)" class="st11 st12 st13">Computational</text>
	<text transform="matrix(1 0 0 1 58.2643 330.6246)" class="st11 st12 st13">techniques</text>
	<path class="st11 wlmNixpQ_43" d="M220.4,286.7"></path>
	<text transform="matrix(1 0 0 1 292.8941 294.6011)" class="st11 st12 st13">Biology-first</text>
	<text transform="matrix(1 0 0 1 292.8941 307.8795)" class="st11 st12 st13">approach</text>
	<text transform="matrix(1 0 0 1 56.3404 461.8057)" class="st11 st12 st13">Animal</text>
	<text transform="matrix(1 0 0 1 56.3404 475.0836)" class="st11 st12 st13">studies</text>
	<text transform="matrix(1 0 0 1 119.6568 458.7315)" class="st11 st12 st13">In</text>
	<text transform="matrix(1 0 0 1 119.6568 472.0103)" class="st11 st12 st13">vitro</text>
	<text transform="matrix(1 0 0 1 159.8863 461.314)" class="st11 st12 st13">RWE</text>
	<text transform="matrix(1 0 0 1 214.5299 461.8052)" class="st11 st12 st13">etc</text>
	<text transform="matrix(1 0 0 1 261.9142 435.3726)" class="st11 st12 st13">etc</text>
	<text transform="matrix(1 0 0 1 296.3385 433.5284)" class="st11 st12 st13">etc</text>
	<text transform="matrix(1 0 0 1 146.8648 599.064)" class="st11 st12 st13">Funding</text>
	<text transform="matrix(1 0 0 1 182.7096 535.0103)" class="st11 st12 st13">Analyzing</text>
	<text transform="matrix(1 0 0 1 42.5533 533.1656)" class="st11 st12 st13">Trials</text>
	<text transform="matrix(1 0 0 1 105.255 643.815)" class="st11 st12 st13">Success</text>
</g>
<style data-made-with="vivus-instant">.wlmNixpQ_0{stroke-dasharray:653 655;stroke-dashoffset:654;}.start .wlmNixpQ_0{animation:wlmNixpQ_draw 415ms linear 0ms forwards;}.wlmNixpQ_1{stroke-dasharray:368 370;stroke-dashoffset:369;}.start .wlmNixpQ_1{animation:wlmNixpQ_draw 234ms linear 415ms forwards;}.wlmNixpQ_2{stroke-dasharray:25 27;stroke-dashoffset:26;}.start .wlmNixpQ_2{animation:wlmNixpQ_draw 16ms linear 650ms forwards;}.wlmNixpQ_3{stroke-dasharray:47 49;stroke-dashoffset:48;}.start .wlmNixpQ_3{animation:wlmNixpQ_draw 30ms linear 666ms forwards;}.wlmNixpQ_4{stroke-dasharray:77 79;stroke-dashoffset:78;}.start .wlmNixpQ_4{animation:wlmNixpQ_draw 49ms linear 697ms forwards;}.wlmNixpQ_5{stroke-dasharray:371 373;stroke-dashoffset:372;}.start .wlmNixpQ_5{animation:wlmNixpQ_draw 236ms linear 746ms forwards;}.wlmNixpQ_6{stroke-dasharray:72 74;stroke-dashoffset:73;}.start .wlmNixpQ_6{animation:wlmNixpQ_draw 46ms linear 983ms forwards;}.wlmNixpQ_7{stroke-dasharray:64 66;stroke-dashoffset:65;}.start .wlmNixpQ_7{animation:wlmNixpQ_draw 41ms linear 1029ms forwards;}.wlmNixpQ_8{stroke-dasharray:62 64;stroke-dashoffset:63;}.start .wlmNixpQ_8{animation:wlmNixpQ_draw 40ms linear 1071ms forwards;}.wlmNixpQ_9{stroke-dasharray:55 57;stroke-dashoffset:56;}.start .wlmNixpQ_9{animation:wlmNixpQ_draw 35ms linear 1111ms forwards;}.wlmNixpQ_10{stroke-dasharray:28 30;stroke-dashoffset:29;}.start .wlmNixpQ_10{animation:wlmNixpQ_draw 18ms linear 1146ms forwards;}.wlmNixpQ_11{stroke-dasharray:25 27;stroke-dashoffset:26;}.start .wlmNixpQ_11{animation:wlmNixpQ_draw 16ms linear 1165ms forwards;}.wlmNixpQ_12{stroke-dasharray:368 370;stroke-dashoffset:369;}.start .wlmNixpQ_12{animation:wlmNixpQ_draw 234ms linear 1181ms forwards;}.wlmNixpQ_13{stroke-dasharray:191 193;stroke-dashoffset:192;}.start .wlmNixpQ_13{animation:wlmNixpQ_draw 122ms linear 1416ms forwards;}.wlmNixpQ_14{stroke-dasharray:371 373;stroke-dashoffset:372;}.start .wlmNixpQ_14{animation:wlmNixpQ_draw 236ms linear 1538ms forwards;}.wlmNixpQ_15{stroke-dasharray:85 87;stroke-dashoffset:86;}.start .wlmNixpQ_15{animation:wlmNixpQ_draw 54ms linear 1774ms forwards;}.wlmNixpQ_16{stroke-dasharray:81 83;stroke-dashoffset:82;}.start .wlmNixpQ_16{animation:wlmNixpQ_draw 52ms linear 1829ms forwards;}.wlmNixpQ_17{stroke-dasharray:0 2;stroke-dashoffset:1;}.start .wlmNixpQ_17{animation:wlmNixpQ_draw 0ms linear 1881ms forwards;}.wlmNixpQ_18{stroke-dasharray:287 289;stroke-dashoffset:288;}.start .wlmNixpQ_18{animation:wlmNixpQ_draw 183ms linear 1882ms forwards;}.wlmNixpQ_19{stroke-dasharray:171 173;stroke-dashoffset:172;}.start .wlmNixpQ_19{animation:wlmNixpQ_draw 109ms linear 2065ms forwards;}.wlmNixpQ_20{stroke-dasharray:55 57;stroke-dashoffset:56;}.start .wlmNixpQ_20{animation:wlmNixpQ_draw 35ms linear 2174ms forwards;}.wlmNixpQ_21{stroke-dasharray:20 22;stroke-dashoffset:21;}.start .wlmNixpQ_21{animation:wlmNixpQ_draw 13ms linear 2210ms forwards;}.wlmNixpQ_22{stroke-dasharray:83 85;stroke-dashoffset:84;}.start .wlmNixpQ_22{animation:wlmNixpQ_draw 53ms linear 2223ms forwards;}.wlmNixpQ_23{stroke-dasharray:83 85;stroke-dashoffset:84;}.start .wlmNixpQ_23{animation:wlmNixpQ_draw 53ms linear 2277ms forwards;}.wlmNixpQ_24{stroke-dasharray:83 85;stroke-dashoffset:84;}.start .wlmNixpQ_24{animation:wlmNixpQ_draw 53ms linear 2330ms forwards;}.wlmNixpQ_25{stroke-dasharray:83 85;stroke-dashoffset:84;}.start .wlmNixpQ_25{animation:wlmNixpQ_draw 53ms linear 2383ms forwards;}.wlmNixpQ_26{stroke-dasharray:83 85;stroke-dashoffset:84;}.start .wlmNixpQ_26{animation:wlmNixpQ_draw 53ms linear 2437ms forwards;}.wlmNixpQ_27{stroke-dasharray:49 51;stroke-dashoffset:50;}.start .wlmNixpQ_27{animation:wlmNixpQ_draw 31ms linear 2490ms forwards;}.wlmNixpQ_28{stroke-dasharray:49 51;stroke-dashoffset:50;}.start .wlmNixpQ_28{animation:wlmNixpQ_draw 31ms linear 2522ms forwards;}.wlmNixpQ_29{stroke-dasharray:49 51;stroke-dashoffset:50;}.start .wlmNixpQ_29{animation:wlmNixpQ_draw 31ms linear 2554ms forwards;}.wlmNixpQ_30{stroke-dasharray:49 51;stroke-dashoffset:50;}.start .wlmNixpQ_30{animation:wlmNixpQ_draw 31ms linear 2586ms forwards;}.wlmNixpQ_31{stroke-dasharray:49 51;stroke-dashoffset:50;}.start .wlmNixpQ_31{animation:wlmNixpQ_draw 31ms linear 2617ms forwards;}.wlmNixpQ_32{stroke-dasharray:49 51;stroke-dashoffset:50;}.start .wlmNixpQ_32{animation:wlmNixpQ_draw 31ms linear 2649ms forwards;}.wlmNixpQ_33{stroke-dasharray:49 51;stroke-dashoffset:50;}.start .wlmNixpQ_33{animation:wlmNixpQ_draw 31ms linear 2681ms forwards;}.wlmNixpQ_34{stroke-dasharray:49 51;stroke-dashoffset:50;}.start .wlmNixpQ_34{animation:wlmNixpQ_draw 31ms linear 2713ms forwards;}.wlmNixpQ_35{stroke-dasharray:49 51;stroke-dashoffset:50;}.start .wlmNixpQ_35{animation:wlmNixpQ_draw 31ms linear 2745ms forwards;}.wlmNixpQ_36{stroke-dasharray:49 51;stroke-dashoffset:50;}.start .wlmNixpQ_36{animation:wlmNixpQ_draw 31ms linear 2776ms forwards;}.wlmNixpQ_37{stroke-dasharray:49 51;stroke-dashoffset:50;}.start .wlmNixpQ_37{animation:wlmNixpQ_draw 31ms linear 2808ms forwards;}.wlmNixpQ_38{stroke-dasharray:49 51;stroke-dashoffset:50;}.start .wlmNixpQ_38{animation:wlmNixpQ_draw 31ms linear 2840ms forwards;}.wlmNixpQ_39{stroke-dasharray:49 51;stroke-dashoffset:50;}.start .wlmNixpQ_39{animation:wlmNixpQ_draw 31ms linear 2872ms forwards;}.wlmNixpQ_40{stroke-dasharray:49 51;stroke-dashoffset:50;}.start .wlmNixpQ_40{animation:wlmNixpQ_draw 31ms linear 2904ms forwards;}.wlmNixpQ_41{stroke-dasharray:49 51;stroke-dashoffset:50;}.start .wlmNixpQ_41{animation:wlmNixpQ_draw 31ms linear 2935ms forwards;}.wlmNixpQ_42{stroke-dasharray:49 51;stroke-dashoffset:50;}.start .wlmNixpQ_42{animation:wlmNixpQ_draw 31ms linear 2967ms forwards;}.wlmNixpQ_43{stroke-dasharray:0 2;stroke-dashoffset:1;}.start .wlmNixpQ_43{animation:wlmNixpQ_draw 0ms linear 2999ms forwards;}@keyframes wlmNixpQ_draw{100%{stroke-dashoffset:0;}}@keyframes wlmNixpQ_fade{0%{stroke-opacity:1;}94.44444444444444%{stroke-opacity:1;}100%{stroke-opacity:0;}}</style></svg>
